<?xml version="1.0" encoding="utf-8"?>
<!-- Generator: Adobe Illustrator 19.2.0, SVG Export Plug-In . SVG Version: 6.00 Build 0)  -->
<svg version="1.1" xmlns="http://www.w3.org/2000/svg" xmlns:xlink="http://www.w3.org/1999/xlink" x="0px" y="0px"
	 viewBox="0 0 362 82.7" style="enable-background:new 0 0 362 82.7;" xml:space="preserve">
<style type="text/css">
	.st0{fill:#F3EC90;}
	.st1{fill:#82C4B1;}
	.st2{fill:#FFFFFF;}
	.st3{display:none;}
	.st4{display:inline;fill:#FFFFFF;}
	.st5{display:inline;fill:#F3EC90;}
</style>
<g id="Layer_1">
	<rect x="-925.4" y="-73" class="st0" width="431.8" height="288.5"/>
	<rect x="-474" y="-73" class="st1" width="431.6" height="288.5"/>
	<rect x="-448" y="-46" class="st2" width="378" height="234"/>
	<rect x="-430" y="-28" class="st1" width="342" height="198"/>
	<g>
		<g>
			<path class="st2" d="M-324.3,102c0-9.1,9.6-15.1,19.1-21.9c1.7-7.4,2.5-10.9,3.1-14.5c-2.9,6.5-7.2,11.9-12.3,11.9
				c-8.7,0-12.4-8.9-12.4-20.4c0-21.2,12.4-51.3,28.6-51.3c2,0,3.9,0.7,4.7,1.7c4.5,2.2,5.7,7.2,5.7,12.7c0,6.7-1.8,14.2-2.1,18.6
				c-0.2,2.6-2.6,3.6-5,3.6c-2.5,0-5-1.1-5-3c0-7.1,6-17.8,6-25.4c0-1.7-0.3-3.3-1-4.6c-11.8,0.2-22.3,30.8-22.3,48.6
				c0,7.4,1.7,12.6,6,12.6c4.7,0,8.2-7.6,11-15.3c0.7-1.5,2.4-2.4,4.1-2.4c2.2,0,4.3,1.4,4.3,4.4c0,1.9-1.5,9.4-2.4,14.1
				c4.4-4.1,8.4-9,11.4-15.2c0.5-1.1,1.2-1.6,1.7-1.6c0.4,0,0.7,0.3,0.7,1c0,0.4-0.2,1-0.4,1.6c-3.8,9.4-9.1,15.7-14.7,20.5
				l-2.5,9.8c-4.1,15.9-11.8,22-17.7,22C-319.8,109.5-324.3,106.6-324.3,102z M-318.1,106.4c3.2,0,8.1-4.4,11.4-20.1
				c-6.1,4.4-14.1,10.3-14.1,16.9C-320.8,104.6-320,106.4-318.1,106.4z"/>
			<path class="st2" d="M-275.5,67.2c0,2.1,0.5,3.3,1.8,3.3c3.7,0,9.2-12.1,10.3-14.3c0.6-1.1,1.2-1.7,1.7-1.7c0.4,0,0.7,0.4,0.7,1
				c0,0.5-0.1,1-0.4,1.7c-1.4,3.5-7.2,19.9-15.6,19.9c-3.9,0-7.2-2.8-7.2-10.3c0-6,3.8-24.5,7.8-39.2c0.5-1.7,2.1-2.6,4-2.6
				c2.5,0,5.2,1.7,5.2,5.1C-267.2,35.4-275.5,59.5-275.5,67.2z M-275.3,15.6c0-4.3,3.5-9.9,9-9.9c4.1,0,5.9,2.4,5.9,5.2
				c0,4.2-4.1,9.5-10.4,9.5C-273.9,20.4-275.3,18.2-275.3,15.6z"/>
			<path class="st2" d="M-256.7,67.7c0,2.9,0.7,4.9,2.6,4.9c3.1,0,6.9-9,10.3-19c-1.3-2.2-1.9-5.2-1.9-8.4c0-9.5,5.1-21.1,10.3-21.1
				c1.8,0,4,1.1,4,5.7c0,5.2-2.8,14.8-6.1,23.4c0.7,0.3,1.7,0.5,2.5,0.5c5.5,0,10.5-7.5,12.8-13.2c0.4-1.1,0.9-1.5,1.3-1.5
				c0.4,0,0.6,0.5,0.6,1.2c0,0.3,0,0.7-0.1,1c-2.1,6.8-8.1,16.5-15.9,16.5c-1.1,0-2-0.1-2.9-0.4c-4.6,10.7-10.8,19.8-17.3,19.8
				c-5.5,0-7.4-6-7.4-14.2c0-11.3,3.6-26.6,6-35.3c0.5-1.7,2.1-2.6,4-2.6c2.5,0,5.2,1.7,5.2,5.1C-248.7,35.4-256.7,58.3-256.7,67.7z
				"/>
			<path class="st2" d="M-197.5,36.6c0,9.6-7.2,23.1-17.8,23.1c-1.2,0-2.5-0.2-3.8-0.6c0,4.4,0.4,12,6.6,12
				c9.5,0,14.6-10.8,17.2-14.9c0.6-1,1.1-1.4,1.6-1.4c0.4,0,0.7,0.4,0.7,1c0,0.4-0.1,0.9-0.3,1.4c-4.5,11.2-11.5,20-23,20
				c-8.6,0-12.1-7.8-12.1-17.3c0-14.9,8.6-34.2,19.1-34.2c2.2,0,4.5,0.7,5.7,1.7C-199.4,27.9-197.5,31.7-197.5,36.6z M-218.1,56.5
				c5.9,0,14.4-15.8,14.4-23.6c0-1.6-0.2-3.3-1.7-3.3c-5.7,0-12.3,14.8-13.5,26.8C-218.6,56.5-218.4,56.5-218.1,56.5z"/>
		</g>
		<g>
			<path class="st2" d="M-293.6,131c0.1,0,0.2,0,0.3,0.1l0.7,0.8c-0.5,0.6-1.2,1.1-1.9,1.4c-0.8,0.3-1.7,0.5-2.8,0.5
				c-0.9,0-1.8-0.2-2.5-0.5c-0.8-0.3-1.4-0.8-2-1.4c-0.5-0.6-1-1.3-1.3-2.1c-0.3-0.8-0.4-1.7-0.4-2.7s0.2-1.9,0.5-2.7
				s0.7-1.5,1.3-2.1c0.6-0.6,1.2-1,2-1.4c0.8-0.3,1.6-0.5,2.6-0.5c0.9,0,1.7,0.1,2.5,0.4c0.7,0.3,1.3,0.7,1.9,1.2l-0.6,0.8
				c0,0.1-0.1,0.1-0.1,0.2s-0.1,0.1-0.2,0.1c-0.1,0-0.2-0.1-0.4-0.2c-0.2-0.1-0.4-0.2-0.6-0.4c-0.3-0.1-0.6-0.3-1-0.4
				c-0.4-0.1-0.9-0.2-1.4-0.2c-0.7,0-1.3,0.1-1.8,0.3c-0.6,0.2-1,0.6-1.4,1c-0.4,0.4-0.7,1-0.9,1.6c-0.2,0.6-0.3,1.4-0.3,2.2
				c0,0.8,0.1,1.5,0.3,2.2c0.2,0.6,0.6,1.2,1,1.6c0.4,0.4,0.9,0.8,1.4,1c0.5,0.2,1.1,0.3,1.8,0.3c0.4,0,0.7,0,1-0.1
				c0.3,0,0.6-0.1,0.9-0.2c0.3-0.1,0.5-0.2,0.7-0.4c0.2-0.1,0.5-0.3,0.7-0.5C-293.8,131-293.7,131-293.6,131z"/>
			<path class="st2" d="M-288.8,120.3v13.4h-1.6v-13.4H-288.8z"/>
			<path class="st2" d="M-283.6,121.6c0,0.2,0,0.3-0.1,0.4c-0.1,0.1-0.1,0.3-0.3,0.4c-0.1,0.1-0.2,0.2-0.4,0.2s-0.3,0.1-0.4,0.1
				c-0.2,0-0.3,0-0.4-0.1c-0.1-0.1-0.3-0.1-0.4-0.2c-0.1-0.1-0.2-0.2-0.2-0.4c-0.1-0.1-0.1-0.3-0.1-0.4c0-0.2,0-0.3,0.1-0.4
				s0.1-0.3,0.2-0.4c0.1-0.1,0.2-0.2,0.4-0.2c0.1-0.1,0.3-0.1,0.4-0.1c0.2,0,0.3,0,0.4,0.1s0.3,0.1,0.4,0.2c0.1,0.1,0.2,0.2,0.3,0.4
				S-283.6,121.4-283.6,121.6z M-284,124.5v9.2h-1.6v-9.2H-284z"/>
			<path class="st2" d="M-274.4,126.1c0,0.1-0.1,0.1-0.1,0.2c0,0-0.1,0.1-0.2,0.1c-0.1,0-0.2,0-0.3-0.1c-0.1-0.1-0.2-0.2-0.4-0.2
				s-0.4-0.2-0.6-0.2c-0.2-0.1-0.5-0.1-0.9-0.1c-0.5,0-0.9,0.1-1.2,0.2c-0.3,0.2-0.6,0.4-0.9,0.7c-0.2,0.3-0.4,0.7-0.5,1.1
				c-0.1,0.4-0.2,0.9-0.2,1.4c0,0.6,0.1,1.1,0.2,1.5c0.1,0.4,0.3,0.8,0.5,1.1c0.2,0.3,0.5,0.5,0.8,0.7s0.7,0.2,1.1,0.2
				c0.4,0,0.7,0,1-0.1c0.3-0.1,0.5-0.2,0.6-0.3c0.2-0.1,0.3-0.2,0.4-0.3s0.2-0.1,0.3-0.1c0.1,0,0.2,0.1,0.3,0.2l0.5,0.6
				c-0.2,0.2-0.4,0.5-0.7,0.6c-0.3,0.2-0.5,0.3-0.8,0.4c-0.3,0.1-0.6,0.2-0.9,0.3c-0.3,0.1-0.6,0.1-1,0.1c-0.6,0-1.1-0.1-1.6-0.3
				c-0.5-0.2-0.9-0.5-1.3-0.9c-0.4-0.4-0.6-0.9-0.9-1.5c-0.2-0.6-0.3-1.3-0.3-2c0-0.7,0.1-1.3,0.3-1.9c0.2-0.6,0.5-1.1,0.8-1.5
				s0.8-0.7,1.4-1c0.5-0.2,1.2-0.4,1.8-0.4c0.6,0,1.2,0.1,1.7,0.3c0.5,0.2,0.9,0.5,1.3,0.9L-274.4,126.1z"/>
			<path class="st2" d="M-270,120.3v7.9h0.4c0.1,0,0.2,0,0.3,0c0.1,0,0.2-0.1,0.3-0.2l2.9-3.1c0.1-0.1,0.2-0.2,0.3-0.2
				s0.2-0.1,0.4-0.1h1.5l-3.4,3.6c-0.2,0.2-0.3,0.4-0.5,0.5c0.1,0.1,0.2,0.2,0.3,0.2s0.2,0.2,0.2,0.3l3.6,4.5h-1.4
				c-0.1,0-0.3,0-0.4-0.1c-0.1,0-0.2-0.1-0.3-0.2l-3-3.8c-0.1-0.1-0.2-0.2-0.3-0.2c-0.1,0-0.2-0.1-0.4-0.1h-0.5v4.4h-1.6v-13.4H-270
				z"/>
			<path class="st2" d="M-245.9,133.7h-1.8v-5.9h-7v5.9h-1.8v-13h1.8v5.8h7v-5.8h1.8V133.7z"/>
			<path class="st2" d="M-239,124.3c0.6,0,1.1,0.1,1.5,0.3c0.5,0.2,0.9,0.5,1.2,0.8c0.3,0.3,0.6,0.8,0.8,1.3
				c0.2,0.5,0.3,1.1,0.3,1.7c0,0.3,0,0.4-0.1,0.5s-0.2,0.1-0.3,0.1h-6.1c0,0.6,0.1,1.1,0.2,1.5c0.1,0.4,0.3,0.8,0.6,1.1
				c0.3,0.3,0.6,0.5,0.9,0.6c0.4,0.1,0.7,0.2,1.2,0.2c0.4,0,0.8,0,1-0.1c0.3-0.1,0.5-0.2,0.8-0.3c0.2-0.1,0.4-0.2,0.5-0.3
				s0.3-0.1,0.4-0.1c0.1,0,0.2,0.1,0.3,0.2l0.5,0.6c-0.2,0.2-0.4,0.5-0.7,0.6s-0.6,0.3-0.9,0.4c-0.3,0.1-0.6,0.2-1,0.3
				s-0.7,0.1-1,0.1c-0.6,0-1.2-0.1-1.8-0.3c-0.5-0.2-1-0.5-1.4-0.9s-0.7-0.9-0.9-1.5c-0.2-0.6-0.3-1.3-0.3-2.1
				c0-0.6,0.1-1.2,0.3-1.8c0.2-0.6,0.5-1,0.8-1.4c0.4-0.4,0.8-0.7,1.4-1C-240.2,124.4-239.6,124.3-239,124.3z M-238.9,125.5
				c-0.8,0-1.4,0.2-1.8,0.7s-0.7,1.1-0.8,1.9h5c0-0.4-0.1-0.7-0.2-1c-0.1-0.3-0.3-0.6-0.5-0.8c-0.2-0.2-0.5-0.4-0.7-0.5
				C-238.2,125.6-238.6,125.5-238.9,125.5z"/>
			<path class="st2" d="M-232.7,133.7v-9.2h0.9c0.2,0,0.3,0,0.4,0.1s0.1,0.2,0.1,0.3l0.1,1.4c0.3-0.6,0.6-1.1,1.1-1.5
				c0.4-0.4,0.9-0.5,1.6-0.5c0.2,0,0.4,0,0.6,0.1c0.2,0,0.3,0.1,0.5,0.2l-0.1,1.2c0,0.2-0.1,0.2-0.3,0.2c-0.1,0-0.2,0-0.4-0.1
				c-0.2,0-0.3-0.1-0.6-0.1c-0.3,0-0.6,0-0.8,0.1c-0.2,0.1-0.4,0.2-0.6,0.4c-0.2,0.2-0.3,0.4-0.5,0.6c-0.1,0.2-0.3,0.5-0.4,0.8v5.8
				H-232.7z"/>
			<path class="st2" d="M-222.2,124.3c0.6,0,1.1,0.1,1.5,0.3c0.5,0.2,0.9,0.5,1.2,0.8c0.3,0.3,0.6,0.8,0.8,1.3
				c0.2,0.5,0.3,1.1,0.3,1.7c0,0.3,0,0.4-0.1,0.5s-0.2,0.1-0.3,0.1h-6.1c0,0.6,0.1,1.1,0.2,1.5c0.1,0.4,0.3,0.8,0.6,1.1
				c0.3,0.3,0.6,0.5,0.9,0.6c0.4,0.1,0.7,0.2,1.2,0.2c0.4,0,0.8,0,1-0.1c0.3-0.1,0.5-0.2,0.8-0.3c0.2-0.1,0.4-0.2,0.5-0.3
				s0.3-0.1,0.4-0.1c0.1,0,0.2,0.1,0.3,0.2l0.5,0.6c-0.2,0.2-0.4,0.5-0.7,0.6s-0.6,0.3-0.9,0.4c-0.3,0.1-0.6,0.2-1,0.3
				s-0.7,0.1-1,0.1c-0.6,0-1.2-0.1-1.8-0.3c-0.5-0.2-1-0.5-1.4-0.9s-0.7-0.9-0.9-1.5c-0.2-0.6-0.3-1.3-0.3-2.1
				c0-0.6,0.1-1.2,0.3-1.8c0.2-0.6,0.5-1,0.8-1.4c0.4-0.4,0.8-0.7,1.4-1C-223.4,124.4-222.8,124.3-222.2,124.3z M-222.1,125.5
				c-0.8,0-1.4,0.2-1.8,0.7s-0.7,1.1-0.8,1.9h5c0-0.4-0.1-0.7-0.2-1c-0.1-0.3-0.3-0.6-0.5-0.8c-0.2-0.2-0.5-0.4-0.7-0.5
				C-221.4,125.6-221.7,125.5-222.1,125.5z"/>
		</g>
	</g>
	<g>
	</g>
</g>
<g id="Layer_2" class="st3">
	<rect x="-898.7" y="-46" class="st4" width="378" height="234"/>
</g>
<g id="Layer_3" class="st3">
	<rect x="-880.7" y="-28" class="st5" width="342" height="198"/>
</g>
<g id="Layer_4" class="st3">
</g>
<g id="Layer_5">
	<g>
		<g>
			<path class="st2" d="M-843.7,25.2c1.3,0,2.5,0.5,2.5,1.5c0,2.4-0.3,4.7-0.3,7c0,13.7,3.1,26.8,4.9,34.4
				c1.5-13.3,3.3-27.5,6.1-41.2c0.4-1.7,2.1-2.5,3.6-2.5c1.3,0,2.4,0.5,2.4,1.3c0,2-4.2,8.6-11,47.2c0,0,0.1,0.5,0.1,1
				c0,1.5-2,3.1-3.9,3.1c-1,0-1.9-0.5-2.3-1.8c-2.4-8.6-5.5-21.5-6.4-35.6c-1.9,12.6-3.2,20.3-7.8,35.8c-0.3,1-1.8,1.5-3.2,1.5
				c-1.4,0-2.5-0.4-2.5-1.3c0-1.2,6.8-9.9,13.3-44.8c0-0.9,0-1.7,0.1-2.5C-848,26.3-845.7,25.2-843.7,25.2z"/>
			<path class="st2" d="M-804.7,47.3c0,7-5.2,18.6-15.3,17.1c-0.2,0-0.4,0-0.6,0c0,4.7,1.2,8.4,4.8,8.4c6.3,0,10.6-7.3,12.3-10.7
				c0.7-10.6,6.7-23,13.9-23c1.6,0,3.3,0.5,4.1,1.2c3.1,0.4,4.4,3.3,4.4,7.2c0,7.4-5.1,17.9-12.6,17.9c-1,0-2.1-0.2-3.2-0.7
				c0.1,4.4,1.4,7.8,4.8,7.8c8.5,0,12.4-11.8,13.7-11.8c0.3,0,0.5,0.3,0.5,0.7c0,0.3-0.1,0.7-0.2,1c-3.3,8.1-8.4,14.5-16.7,14.5
				c-5.7,0-8.3-4.7-8.6-10.8c-3.3,6.4-8,11.1-15,11.1c-6.2,0-8.8-5.7-8.8-12.6c0-11,6.2-25.1,13.9-25.1c1.6,0,3.3,0.5,4.1,1.2
				C-806.1,41.2-804.7,43.8-804.7,47.3z M-809.2,45.4c0-1.5-0.2-3.1-1.5-3.1c-4.2,0-9.2,11.5-9.9,20.3
				C-814.6,61.9-809.2,51.3-809.2,45.4z M-785.4,44.8c0-1.5-0.2-2.8-1.4-2.8c-4.3,0-9.3,11.8-10,20.7
				C-791.4,63.4-785.4,51-785.4,44.8z"/>
			<path class="st2" d="M-760.7,69.5c0,2,0.4,3.1,1.5,3.1c2.5,0,5.6-6.8,7.6-10.8c0.4-0.8,0.9-1.2,1.3-1.2c0.3,0,0.4,0.3,0.4,0.7
				c0,0.3-0.1,0.7-0.3,1.2c-1.8,4.4-4.7,14.5-11.8,14.5c-2.9,0-4.6-3.1-4.6-7.5c0-0.2,0-0.7,0.1-1.1c-2.5,5.3-5.4,8.6-7.8,8.6
				c-3.9,0-5.6-4.2-5.6-9.9c0-11,6.4-27.5,14.8-27.5c2,0,3.1,1.7,3.8,3.5c1.5-6.8,3.2-13.4,4.3-17.4c0.3-1.1,1.2-1.6,2.3-1.6
				c1.8,0,4,1.5,4,4.1C-750.9,32.9-760.7,61.1-760.7,69.5z M-762.2,46c-0.1-0.9-0.4-2.3-2-2.3c-4.9,0-9.3,17-9.3,24.6
				c0,2.2,0.4,3.6,1.2,3.6c2.9,0,5.7-7.3,7.9-16C-763.7,52.9-763,49.4-762.2,46z"/>
			<path class="st2" d="M-732.3,41.2c-1.7,0-4.1-2.7-4.1-5.2c0-3.2,7-10.3,16.4-10.3c9.7,0,16.4,6.8,16.4,17.8
				c0,9.9-6,20.6-19.3,20.6c-0.3,0-0.5,0-0.8,0c-1.2,5.2-2.1,9.4-2.5,11.7c-0.1,0.8-0.9,1.2-1.9,1.2c-1.6,0-3.5-0.9-3.5-2.5
				c0-3.4,0.8-7.5,1.5-11.3c-1.5-0.4-2.3-1.2-2.3-1.7c0-0.4,0.4-0.7,1.1-0.7c0.4,0,0.9,0.1,1.6,0.3c1.3-7.8,3.2-16.6,6.3-27.2
				c0.3-1.1,1.2-1.5,2.2-1.5c2,0,4.7,1.7,4.7,3.6c0,0.1,0,0.4-0.1,0.5c-2.1,7.7-4.4,16.9-6.3,24.6c8.4-2.3,14-12.7,14-22.1
				c0-3-0.5-5.9-1.7-8.4c-1.7-0.9-3.6-1.2-5.4-1.2c-5.7,0-11.8,4.2-14.8,10.8C-731.2,40.9-731.7,41.2-732.3,41.2z"/>
			<path class="st2" d="M-700.4,74.7c-0.2,1.6-1.5,2.4-2.7,2.4c-1.4,0-2.8-1-2.8-3.2c0-5.1,2.5-19.4,5.7-30.6
				c0.4-1.2,1.5-1.8,2.8-1.8c1.7,0,3.6,1.2,3.6,3.2c0,1.2-0.9,3.1-1.2,4.4c2.6-5.6,5.8-9.7,9.4-9.7c2.7,0,3.7,1.6,3.7,4.7
				c0,4.1-3.5,10.8-3.5,13.4c0,1,0.6,1.6,1.7,1.6c2.4,0,5.4-5.3,6.6-8.1c0.4-1.1,0.9-1.7,1.4-1.7c0.8,0,0.5,1.5,0.4,2
				c-1.1,4.1-5.3,10.7-10.3,10.7c-2.9,0-5.7-1.2-5.7-5.6c0-4,3.2-8.9,3.2-11.1c0-0.5-0.2-0.9-0.7-0.9c-2.5,0-8.4,10.4-10.3,22.7
				L-700.4,74.7z"/>
			<path class="st2" d="M-661.1,70.8c0,1.1,0.4,1.8,1,1.8c1.5,0,3.8-3.9,7.2-10.9c0.4-0.8,0.9-1.2,1.3-1.2c0.2,0,0.4,0.2,0.4,0.7
				c0,0.3-0.1,0.7-0.3,1.2c-1,2.5-5.6,14.5-11.2,14.5c-2.3,0-4.9-1.2-4.9-6.7c0-0.4,0-0.9,0.1-1.4c-2.4,4.9-5.2,8.1-7.5,8.1
				c-3.9,0-5.6-4.2-5.6-9.9c0-11,6.4-27.5,14.8-27.5c2.9,0,4.7,3.1,4.9,5.4h0.4c1.8,0,4,1.5,4,4.2c0,0.4,0,0.7-0.1,1.1
				C-658.6,59.5-661.1,67.3-661.1,70.8z M-665.1,57l2.3-10.5c0-1.2-0.2-2.8-2-2.8c-4.9,0-9.3,17-9.3,24.6c0,2.2,0.4,3.6,1.2,3.6
				C-670.1,72-666.9,65.1-665.1,57z"/>
			<path class="st2" d="M-656.7,93.3c0-8,7.7-11,15-15.5c0.3-2.2,0.7-4.6,1.1-7.1c-1.9,3.9-4.4,6.2-7.4,6.2c-4.4,0-5.8-3.1-5.8-7.6
				c0-7.3,3.6-18.5,5.2-27.5c0.2-1.5,1.3-2,2.6-2c1.9,0,4.1,1.4,4.1,3.2c0,2.5-1.2,6.2-2,10.2c-1.5,6.4-3,13.2-3,16.1
				c0,1.7,0.4,2.8,1.5,2.8c3.9,0,5.4-8.4,8.6-20.9c1.2-5.4,2-9.3,2-9.3c0.3-1.2,1.5-1.8,2.7-1.8c1.8,0,3.9,1.2,3.9,2.8
				c0,2-1.2,2.8-5.8,29.4c2.9-2.7,5.6-6,7.8-10.5c0.4-0.8,0.9-1.3,1.3-1.3c0.3,0,0.4,0.2,0.4,0.7c0,0.3-0.1,0.7-0.3,1.3
				c-2.7,6.8-6.3,11.2-10,14.5c-3.3,17.2-8.7,23.5-14.5,23.5C-652.8,100.5-656.7,97.3-656.7,93.3z M-650.9,98.2
				c6.8,0,8.1-11,8.7-15.8c-5.2,3.3-11.4,6.8-11.4,12.6c0,1.6,0.9,2.5,2,3.2C-651.5,98.2-651.2,98.2-650.9,98.2z"/>
			<path class="st2" d="M-603.9,47.5c0,7-5.2,16.8-12.9,16.8c-0.9,0-1.8-0.1-2.8-0.4c0,3.2,0.3,8.7,4.8,8.7
				c6.9,0,10.6-7.8,12.5-10.8c0.4-0.7,0.8-1,1.2-1c0.3,0,0.5,0.3,0.5,0.7c0,0.3-0.1,0.7-0.2,1c-3.3,8.1-8.4,14.5-16.7,14.5
				c-6.2,0-8.8-5.7-8.8-12.6c0-10.8,6.2-24.9,13.9-24.9c1.6,0,3.3,0.5,4.1,1.2C-605.3,41.2-603.9,43.9-603.9,47.5z M-618.9,61.9
				c4.3,0,10.5-11.5,10.5-17.1c0-1.2-0.1-2.4-1.2-2.4c-4.1,0-8.9,10.8-9.8,19.5C-619.3,61.9-619.1,61.9-618.9,61.9z"/>
			<path class="st2" d="M-598.6,74.7c-0.3,1.6-1.5,2.4-2.7,2.4c-1.4,0-2.8-1-2.8-3.2c0-4,2.5-19.4,5.7-30.6c0.4-1.2,1.5-1.8,2.8-1.8
				c1.7,0,3.6,1.2,3.6,3.2c0,1.2-0.9,3.1-1.2,4.4c2.6-5.6,5.8-9.7,9.4-9.7c2.7,0,3.7,1.6,3.7,4.7c0,4.1-2.7,8.6-3.1,12.9
				c-0.1,1.6-1.2,2.3-2.5,2.3c-1.7,0-3.6-1.4-3.6-3.7c0-4.4,3-8.1,3-10.4c0-0.5-0.2-0.9-0.7-0.9c-2.5,0-8.4,10.4-10.3,22.7
				L-598.6,74.7z"/>
			<path class="st2" d="M-568.3,25c6.8,0,10.5,5.5,10.5,11.2c0,11.3-11.7,18-13.3,27.4c-0.2,1.2-1.1,1.7-2,1.7
				c-1.6,0-3.6-1.5-3.6-2.8c0-8.1,12.1-16,12.1-27.5c0-4-1.2-8.5-3.8-8.5c-4.4,1.5-4,6.9-6.5,16.2c-0.4,1.3-1.2,1.9-2.3,1.9
				c-1.9,0-4.1-1.8-4.1-4.3C-581.4,38.4-578.5,25-568.3,25z M-579.7,74.1c0-2.3,2-5.1,5-5.1c2.3,0,3.2,1.5,3.2,3.1
				c0,2.3-1.9,5.1-4.8,5.1C-578.1,77.2-579.7,76.1-579.7,74.1z"/>
		</g>
		<g>
			<path class="st2" d="M-742.5,131c0.1,0,0.2,0,0.3,0.1l0.7,0.8c-0.5,0.6-1.2,1.1-1.9,1.4c-0.8,0.3-1.7,0.5-2.8,0.5
				c-0.9,0-1.8-0.2-2.5-0.5c-0.8-0.3-1.4-0.8-2-1.4c-0.5-0.6-1-1.3-1.3-2.1c-0.3-0.8-0.4-1.7-0.4-2.7s0.2-1.9,0.5-2.7
				c0.3-0.8,0.7-1.5,1.3-2.1c0.6-0.6,1.2-1,2-1.4c0.8-0.3,1.6-0.5,2.6-0.5c0.9,0,1.7,0.1,2.5,0.4s1.3,0.7,1.9,1.2l-0.6,0.8
				c0,0.1-0.1,0.1-0.1,0.2s-0.1,0.1-0.2,0.1c-0.1,0-0.2-0.1-0.4-0.2c-0.2-0.1-0.4-0.2-0.6-0.4c-0.3-0.1-0.6-0.3-1-0.4
				c-0.4-0.1-0.9-0.2-1.4-0.2c-0.7,0-1.3,0.1-1.8,0.3c-0.6,0.2-1,0.6-1.4,1c-0.4,0.4-0.7,1-0.9,1.6s-0.3,1.4-0.3,2.2
				c0,0.8,0.1,1.5,0.3,2.2s0.6,1.2,1,1.6c0.4,0.4,0.9,0.8,1.4,1c0.5,0.2,1.1,0.3,1.8,0.3c0.4,0,0.7,0,1-0.1c0.3,0,0.6-0.1,0.9-0.2
				c0.3-0.1,0.5-0.2,0.7-0.4s0.5-0.3,0.7-0.5C-742.7,131-742.6,131-742.5,131z"/>
			<path class="st2" d="M-737.7,120.3v13.4h-1.6v-13.4H-737.7z"/>
			<path class="st2" d="M-732.5,121.6c0,0.2,0,0.3-0.1,0.4c-0.1,0.1-0.1,0.3-0.3,0.4c-0.1,0.1-0.2,0.2-0.4,0.2
				c-0.1,0.1-0.3,0.1-0.4,0.1c-0.2,0-0.3,0-0.4-0.1s-0.3-0.1-0.4-0.2c-0.1-0.1-0.2-0.2-0.2-0.4c-0.1-0.1-0.1-0.3-0.1-0.4
				c0-0.2,0-0.3,0.1-0.4s0.1-0.3,0.2-0.4c0.1-0.1,0.2-0.2,0.4-0.2s0.3-0.1,0.4-0.1c0.2,0,0.3,0,0.4,0.1c0.1,0.1,0.3,0.1,0.4,0.2
				c0.1,0.1,0.2,0.2,0.3,0.4S-732.5,121.4-732.5,121.6z M-732.9,124.5v9.2h-1.6v-9.2H-732.9z"/>
			<path class="st2" d="M-723.3,126.1c0,0.1-0.1,0.1-0.1,0.2s-0.1,0.1-0.2,0.1c-0.1,0-0.2,0-0.3-0.1c-0.1-0.1-0.2-0.2-0.4-0.2
				c-0.2-0.1-0.4-0.2-0.6-0.2c-0.2-0.1-0.5-0.1-0.9-0.1c-0.5,0-0.9,0.1-1.2,0.2c-0.3,0.2-0.6,0.4-0.9,0.7s-0.4,0.7-0.5,1.1
				c-0.1,0.4-0.2,0.9-0.2,1.4c0,0.6,0.1,1.1,0.2,1.5c0.1,0.4,0.3,0.8,0.5,1.1c0.2,0.3,0.5,0.5,0.8,0.7s0.7,0.2,1.1,0.2
				c0.4,0,0.7,0,1-0.1s0.5-0.2,0.6-0.3s0.3-0.2,0.4-0.3c0.1-0.1,0.2-0.1,0.3-0.1c0.1,0,0.2,0.1,0.3,0.2l0.5,0.6
				c-0.2,0.2-0.4,0.5-0.7,0.6c-0.3,0.2-0.5,0.3-0.8,0.4c-0.3,0.1-0.6,0.2-0.9,0.3c-0.3,0.1-0.6,0.1-1,0.1c-0.6,0-1.1-0.1-1.6-0.3
				s-0.9-0.5-1.3-0.9c-0.4-0.4-0.6-0.9-0.9-1.5c-0.2-0.6-0.3-1.3-0.3-2c0-0.7,0.1-1.3,0.3-1.9c0.2-0.6,0.5-1.1,0.8-1.5
				c0.4-0.4,0.8-0.7,1.4-1s1.2-0.4,1.8-0.4c0.6,0,1.2,0.1,1.7,0.3c0.5,0.2,0.9,0.5,1.3,0.9L-723.3,126.1z"/>
			<path class="st2" d="M-719,120.3v7.9h0.4c0.1,0,0.2,0,0.3,0c0.1,0,0.2-0.1,0.3-0.2l2.9-3.1c0.1-0.1,0.2-0.2,0.3-0.2
				c0.1-0.1,0.2-0.1,0.4-0.1h1.5l-3.4,3.6c-0.2,0.2-0.3,0.4-0.5,0.5c0.1,0.1,0.2,0.2,0.3,0.2s0.2,0.2,0.2,0.3l3.6,4.5h-1.4
				c-0.1,0-0.3,0-0.4-0.1c-0.1,0-0.2-0.1-0.3-0.2l-3-3.8c-0.1-0.1-0.2-0.2-0.3-0.2c-0.1,0-0.2-0.1-0.4-0.1h-0.5v4.4h-1.6v-13.4H-719
				z"/>
			<path class="st2" d="M-694.8,133.7h-1.8v-5.9h-7v5.9h-1.8v-13h1.8v5.8h7v-5.8h1.8V133.7z"/>
			<path class="st2" d="M-687.9,124.3c0.6,0,1.1,0.1,1.5,0.3c0.5,0.2,0.9,0.5,1.2,0.8c0.3,0.3,0.6,0.8,0.8,1.3
				c0.2,0.5,0.3,1.1,0.3,1.7c0,0.3,0,0.4-0.1,0.5s-0.2,0.1-0.3,0.1h-6.1c0,0.6,0.1,1.1,0.2,1.5c0.1,0.4,0.3,0.8,0.6,1.1
				c0.3,0.3,0.6,0.5,0.9,0.6c0.4,0.1,0.7,0.2,1.2,0.2c0.4,0,0.8,0,1-0.1c0.3-0.1,0.5-0.2,0.8-0.3c0.2-0.1,0.4-0.2,0.5-0.3
				s0.3-0.1,0.4-0.1c0.1,0,0.2,0.1,0.3,0.2l0.5,0.6c-0.2,0.2-0.4,0.5-0.7,0.6s-0.6,0.3-0.9,0.4c-0.3,0.1-0.6,0.2-1,0.3
				s-0.7,0.1-1,0.1c-0.6,0-1.2-0.1-1.8-0.3c-0.5-0.2-1-0.5-1.4-0.9s-0.7-0.9-0.9-1.5c-0.2-0.6-0.3-1.3-0.3-2.1
				c0-0.6,0.1-1.2,0.3-1.8c0.2-0.6,0.5-1,0.8-1.4c0.4-0.4,0.8-0.7,1.4-1C-689.1,124.4-688.5,124.3-687.9,124.3z M-687.8,125.5
				c-0.8,0-1.4,0.2-1.8,0.7s-0.7,1.1-0.8,1.9h5c0-0.4-0.1-0.7-0.2-1c-0.1-0.3-0.3-0.6-0.5-0.8c-0.2-0.2-0.5-0.4-0.7-0.5
				C-687.1,125.6-687.5,125.5-687.8,125.5z"/>
			<path class="st2" d="M-681.6,133.7v-9.2h0.9c0.2,0,0.3,0,0.4,0.1s0.1,0.2,0.1,0.3l0.1,1.4c0.3-0.6,0.6-1.1,1.1-1.5
				c0.4-0.4,0.9-0.5,1.6-0.5c0.2,0,0.4,0,0.6,0.1c0.2,0,0.3,0.1,0.5,0.2l-0.1,1.2c0,0.2-0.1,0.2-0.3,0.2c-0.1,0-0.2,0-0.4-0.1
				c-0.2,0-0.3-0.1-0.6-0.1c-0.3,0-0.6,0-0.8,0.1c-0.2,0.1-0.4,0.2-0.6,0.4c-0.2,0.2-0.3,0.4-0.5,0.6c-0.1,0.2-0.3,0.5-0.4,0.8v5.8
				H-681.6z"/>
			<path class="st2" d="M-671.1,124.3c0.6,0,1.1,0.1,1.5,0.3c0.5,0.2,0.9,0.5,1.2,0.8c0.3,0.3,0.6,0.8,0.8,1.3
				c0.2,0.5,0.3,1.1,0.3,1.7c0,0.3,0,0.4-0.1,0.5s-0.2,0.1-0.3,0.1h-6.1c0,0.6,0.1,1.1,0.2,1.5c0.1,0.4,0.3,0.8,0.6,1.1
				c0.3,0.3,0.6,0.5,0.9,0.6c0.4,0.1,0.7,0.2,1.2,0.2c0.4,0,0.8,0,1-0.1c0.3-0.1,0.5-0.2,0.8-0.3c0.2-0.1,0.4-0.2,0.5-0.3
				s0.3-0.1,0.4-0.1c0.1,0,0.2,0.1,0.3,0.2l0.5,0.6c-0.2,0.2-0.4,0.5-0.7,0.6s-0.6,0.3-0.9,0.4c-0.3,0.1-0.6,0.2-1,0.3
				s-0.7,0.1-1,0.1c-0.6,0-1.2-0.1-1.8-0.3c-0.5-0.2-1-0.5-1.4-0.9s-0.7-0.9-0.9-1.5c-0.2-0.6-0.3-1.3-0.3-2.1
				c0-0.6,0.1-1.2,0.3-1.8c0.2-0.6,0.5-1,0.8-1.4c0.4-0.4,0.8-0.7,1.4-1C-672.3,124.4-671.7,124.3-671.1,124.3z M-671,125.5
				c-0.8,0-1.4,0.2-1.8,0.7s-0.7,1.1-0.8,1.9h5c0-0.4-0.1-0.7-0.2-1c-0.1-0.3-0.3-0.6-0.5-0.8c-0.2-0.2-0.5-0.4-0.7-0.5
				C-670.3,125.6-670.7,125.5-671,125.5z"/>
		</g>
	</g>
</g>
<g id="Layer_6">
	<g>
		<g>
			<path d="M70,34.9h-4.1c-0.5,0-0.8-0.1-1.1-0.3c-0.3-0.2-0.5-0.5-0.6-0.8l-1.7-4.9H52.2l-1.7,4.9c-0.1,0.3-0.3,0.6-0.6,0.8
				c-0.3,0.2-0.7,0.4-1.1,0.4h-4.1l10-25.6H60L70,34.9z M53.5,25.2h7.6l-2.8-7.8c-0.2-0.4-0.3-0.9-0.5-1.4c-0.2-0.6-0.4-1.1-0.5-1.8
				c-0.2,0.6-0.3,1.2-0.5,1.8c-0.2,0.6-0.3,1-0.5,1.5L53.5,25.2z"/>
			<path d="M84,20.4c-0.1,0.2-0.3,0.3-0.4,0.4C83.4,21,83.3,21,83,21s-0.5-0.1-0.7-0.2c-0.2-0.1-0.5-0.2-0.8-0.4
				c-0.3-0.1-0.7-0.3-1-0.4c-0.4-0.1-0.9-0.2-1.4-0.2c-0.8,0-1.4,0.2-1.8,0.5c-0.4,0.3-0.7,0.8-0.7,1.3c0,0.4,0.1,0.7,0.4,0.9
				s0.6,0.5,1,0.6c0.4,0.2,0.9,0.4,1.4,0.5c0.5,0.2,1,0.3,1.6,0.5c0.5,0.2,1.1,0.4,1.6,0.7s1,0.6,1.4,0.9c0.4,0.4,0.7,0.8,1,1.3
				s0.4,1.2,0.4,1.9c0,0.9-0.2,1.7-0.5,2.4c-0.3,0.7-0.8,1.4-1.4,1.9c-0.6,0.5-1.4,1-2.3,1.3c-0.9,0.3-2,0.5-3.2,0.5
				c-0.6,0-1.2-0.1-1.9-0.2c-0.6-0.1-1.2-0.3-1.7-0.5c-0.6-0.2-1.1-0.4-1.6-0.7c-0.5-0.3-0.9-0.6-1.3-0.9l1.1-1.8
				c0.1-0.2,0.3-0.4,0.5-0.5c0.2-0.1,0.4-0.2,0.8-0.2c0.3,0,0.6,0.1,0.8,0.2c0.2,0.1,0.5,0.3,0.8,0.5c0.3,0.2,0.7,0.3,1.1,0.5
				c0.4,0.1,0.9,0.2,1.6,0.2c0.5,0,0.9-0.1,1.2-0.2c0.3-0.1,0.6-0.2,0.8-0.4c0.2-0.2,0.4-0.4,0.5-0.6s0.2-0.5,0.2-0.7
				c0-0.4-0.1-0.7-0.4-1s-0.6-0.5-1-0.7c-0.4-0.2-0.9-0.4-1.4-0.5c-0.5-0.2-1.1-0.3-1.6-0.5c-0.5-0.2-1.1-0.4-1.6-0.7s-1-0.6-1.4-1
				c-0.4-0.4-0.7-0.9-1-1.5c-0.3-0.6-0.4-1.3-0.4-2.1c0-0.8,0.1-1.5,0.4-2.1c0.3-0.7,0.7-1.3,1.3-1.8s1.3-0.9,2.2-1.2
				c0.9-0.3,1.9-0.5,3-0.5c1.3,0,2.5,0.2,3.5,0.6c1.1,0.4,1.9,1,2.6,1.7L84,20.4z"/>
			<path d="M89.2,34.9V8.6h4.9v10.2c0.7-0.7,1.5-1.3,2.4-1.7c0.9-0.4,1.8-0.7,2.9-0.7c1,0,2,0.2,2.8,0.6c0.8,0.4,1.6,1,2.2,1.8
				c0.6,0.8,1.1,1.7,1.4,2.8c0.3,1.1,0.5,2.3,0.5,3.7c0,1.5-0.2,2.8-0.6,4c-0.4,1.2-0.9,2.2-1.6,3.1s-1.5,1.5-2.4,2
				c-0.9,0.5-2,0.7-3.2,0.7c-0.6,0-1.1-0.1-1.5-0.2c-0.4-0.1-0.9-0.3-1.2-0.5c-0.4-0.2-0.7-0.4-1-0.7c-0.3-0.3-0.6-0.6-0.9-0.9
				L93.6,34c-0.1,0.3-0.2,0.6-0.4,0.7c-0.2,0.1-0.4,0.2-0.8,0.2H89.2z M97.7,20.1c-0.8,0-1.4,0.2-2,0.5c-0.6,0.3-1.1,0.8-1.6,1.5v8
				c0.5,0.5,1,0.9,1.5,1.1c0.5,0.2,1.1,0.3,1.7,0.3c0.6,0,1.1-0.1,1.6-0.3s0.9-0.6,1.3-1c0.4-0.5,0.6-1.1,0.8-1.9
				c0.2-0.8,0.3-1.7,0.3-2.8c0-1-0.1-1.8-0.2-2.5c-0.2-0.7-0.4-1.2-0.7-1.7c-0.3-0.4-0.7-0.8-1.1-1C98.8,20.2,98.3,20.1,97.7,20.1z"
				/>
			<path d="M115,16.7v11.6c0,1,0.2,1.8,0.7,2.4c0.5,0.6,1.2,0.8,2.1,0.8c0.7,0,1.3-0.1,1.9-0.5c0.6-0.3,1.2-0.7,1.7-1.2V16.7h4.9
				v18.2h-3c-0.6,0-1-0.3-1.2-0.8l-0.3-1.3c-0.7,0.7-1.5,1.3-2.4,1.7c-0.9,0.4-1.9,0.7-3.1,0.7c-1,0-1.9-0.2-2.6-0.5
				c-0.8-0.3-1.4-0.8-1.9-1.4c-0.5-0.6-0.9-1.3-1.2-2.2c-0.3-0.8-0.4-1.8-0.4-2.8V16.7H115z"/>
			<path d="M131.3,34.9V16.7h2.9c0.5,0,0.8,0.1,1,0.3c0.2,0.2,0.3,0.5,0.4,0.9l0.2,1.8c0.6-1,1.2-1.9,2-2.5s1.6-0.9,2.7-0.9
				c0.8,0,1.5,0.2,2,0.6l-0.3,3.6c-0.1,0.2-0.1,0.4-0.3,0.5c-0.1,0.1-0.3,0.1-0.5,0.1c-0.2,0-0.5,0-0.8-0.1c-0.4-0.1-0.7-0.1-1-0.1
				c-0.9,0-1.6,0.2-2.1,0.7c-0.5,0.5-1,1.2-1.3,2v11.1H131.3z"/>
			<path d="M152.6,39.8c-0.2,0.3-0.3,0.6-0.6,0.7c-0.2,0.2-0.6,0.2-1,0.2h-3.6l3.4-7.3l-7.3-16.7h4.3c0.4,0,0.7,0.1,0.9,0.3
				c0.2,0.2,0.4,0.4,0.5,0.6l3.5,8.7c0.2,0.7,0.5,1.4,0.6,2.1c0.1-0.4,0.2-0.7,0.3-1c0.1-0.3,0.2-0.7,0.4-1l3.2-8.7
				c0.1-0.3,0.3-0.5,0.5-0.6s0.5-0.2,0.8-0.2h3.9L152.6,39.8z"/>
			<path d="M174.4,34.9V9.3h9.1c1.7,0,3.2,0.2,4.4,0.5s2.2,0.8,3,1.4s1.3,1.3,1.7,2.2c0.4,0.8,0.5,1.8,0.5,2.8
				c0,0.6-0.1,1.2-0.3,1.7c-0.2,0.5-0.4,1-0.8,1.5c-0.4,0.5-0.8,0.9-1.4,1.3s-1.2,0.7-2,1c3.4,0.8,5.1,2.7,5.1,5.6
				c0,1.1-0.2,2.1-0.6,3c-0.4,0.9-1,1.7-1.8,2.4c-0.8,0.7-1.8,1.2-3,1.6c-1.2,0.4-2.5,0.6-4,0.6H174.4z M179.7,20.2h3.5
				c0.7,0,1.4-0.1,2-0.2s1.1-0.3,1.4-0.6s0.7-0.6,0.9-1.1c0.2-0.4,0.3-1,0.3-1.6c0-0.6-0.1-1.2-0.3-1.6c-0.2-0.4-0.4-0.8-0.8-1.1
				c-0.4-0.3-0.8-0.5-1.3-0.6s-1.2-0.2-1.9-0.2h-3.8V20.2z M179.7,23.8v7h4.5c0.8,0,1.5-0.1,2.1-0.3c0.5-0.2,1-0.5,1.3-0.8
				s0.6-0.7,0.7-1.2c0.1-0.4,0.2-0.9,0.2-1.4c0-0.5-0.1-1-0.2-1.4c-0.2-0.4-0.4-0.8-0.7-1.1c-0.3-0.3-0.8-0.5-1.3-0.7
				c-0.5-0.2-1.2-0.2-2-0.2H179.7z"/>
			<path d="M197.8,34.9V16.7h2.9c0.5,0,0.8,0.1,1,0.3c0.2,0.2,0.3,0.5,0.4,0.9l0.2,1.8c0.6-1,1.2-1.9,2-2.5s1.6-0.9,2.7-0.9
				c0.8,0,1.5,0.2,2,0.6l-0.3,3.6c-0.1,0.2-0.1,0.4-0.3,0.5c-0.1,0.1-0.3,0.1-0.5,0.1c-0.2,0-0.5,0-0.8-0.1c-0.4-0.1-0.7-0.1-1-0.1
				c-0.9,0-1.6,0.2-2.1,0.7c-0.5,0.5-1,1.2-1.3,2v11.1H197.8z"/>
			<path d="M219.8,16.4c1.4,0,2.6,0.2,3.7,0.7c1.1,0.4,2.1,1.1,2.9,1.9c0.8,0.8,1.4,1.8,1.9,2.9s0.7,2.5,0.7,3.9
				c0,1.4-0.2,2.8-0.7,3.9s-1.1,2.1-1.9,3c-0.8,0.8-1.8,1.4-2.9,1.9c-1.1,0.4-2.4,0.7-3.7,0.7c-1.4,0-2.6-0.2-3.8-0.7
				c-1.1-0.4-2.1-1.1-2.9-1.9c-0.8-0.8-1.4-1.8-1.9-3s-0.7-2.5-0.7-3.9c0-1.4,0.2-2.7,0.7-3.9s1.1-2.1,1.9-2.9
				c0.8-0.8,1.8-1.4,2.9-1.9C217.2,16.6,218.4,16.4,219.8,16.4z M219.8,31.5c1.4,0,2.4-0.5,3.1-1.4c0.7-1,1-2.4,1-4.3
				c0-1.9-0.3-3.3-1-4.3c-0.7-1-1.7-1.4-3.1-1.4c-1.4,0-2.5,0.5-3.1,1.4c-0.7,1-1,2.4-1,4.3c0,1.9,0.3,3.3,1,4.3
				S218.4,31.5,219.8,31.5z"/>
			<path d="M245,34.9c-0.5,0-0.8-0.1-1-0.2c-0.2-0.1-0.4-0.4-0.6-0.8l-0.4-1.1c-0.5,0.4-0.9,0.8-1.3,1c-0.4,0.3-0.9,0.6-1.3,0.8
				c-0.5,0.2-1,0.4-1.5,0.5s-1.1,0.2-1.7,0.2c-0.8,0-1.5-0.1-2.2-0.3c-0.7-0.2-1.2-0.5-1.7-0.9c-0.5-0.4-0.8-0.9-1.1-1.6
				s-0.4-1.3-0.4-2.2c0-0.7,0.2-1.3,0.5-2c0.3-0.7,0.9-1.3,1.8-1.8c0.8-0.5,1.9-1,3.3-1.4c1.4-0.4,3.1-0.6,5.2-0.6v-0.9
				c0-1.1-0.2-2-0.7-2.5c-0.5-0.5-1.2-0.8-2.1-0.8c-0.7,0-1.2,0.1-1.7,0.2s-0.8,0.3-1.2,0.5c-0.3,0.2-0.7,0.4-0.9,0.5
				c-0.3,0.2-0.6,0.2-1,0.2c-0.3,0-0.6-0.1-0.9-0.3s-0.4-0.4-0.6-0.6l-0.9-1.6c1.1-1,2.3-1.7,3.5-2.2c1.3-0.5,2.7-0.7,4.2-0.7
				c1.1,0,2,0.2,2.9,0.5c0.9,0.4,1.6,0.8,2.2,1.5s1,1.4,1.4,2.2c0.3,0.9,0.5,1.8,0.5,2.9v11.4H245z M238.6,31.9
				c0.8,0,1.5-0.1,2.1-0.4c0.6-0.3,1.2-0.7,1.8-1.3v-2.8c-1.2,0-2.2,0.1-3,0.3c-0.8,0.2-1.4,0.3-1.9,0.6s-0.8,0.5-1,0.8
				c-0.2,0.3-0.3,0.6-0.3,1c0,0.7,0.2,1.2,0.6,1.5C237.3,31.7,237.9,31.9,238.6,31.9z"/>
			<path d="M265.1,34.9c-0.6,0-1-0.3-1.2-0.8l-0.4-1.6c-0.7,0.8-1.6,1.4-2.5,1.9c-0.9,0.5-2,0.8-3.3,0.8c-1,0-1.9-0.2-2.7-0.6
				s-1.5-1-2.1-1.8c-0.6-0.8-1.1-1.8-1.4-2.9s-0.5-2.5-0.5-4c0-1.4,0.2-2.6,0.6-3.8c0.4-1.2,0.9-2.2,1.6-3c0.7-0.8,1.5-1.5,2.5-2
				c1-0.5,2-0.7,3.2-0.7c1,0,1.8,0.1,2.5,0.4c0.7,0.3,1.3,0.7,1.8,1.2V8.6h4.9v26.3H265.1z M259.4,31.4c0.9,0,1.6-0.2,2.2-0.5
				c0.6-0.3,1.1-0.8,1.7-1.5v-8c-0.5-0.5-1-0.9-1.5-1.1c-0.5-0.2-1.1-0.3-1.7-0.3c-0.6,0-1.1,0.1-1.6,0.3c-0.5,0.2-0.9,0.6-1.2,1
				c-0.3,0.5-0.6,1.1-0.8,1.8c-0.2,0.7-0.3,1.6-0.3,2.6c0,1,0.1,1.9,0.2,2.6c0.2,0.7,0.4,1.3,0.7,1.7c0.3,0.4,0.6,0.8,1,0.9
				C258.4,31.3,258.9,31.4,259.4,31.4z"/>
			<path d="M273.1,34.9V16.7h3c0.6,0,1,0.3,1.2,0.8l0.3,1.3c0.4-0.4,0.7-0.7,1.1-1c0.4-0.3,0.8-0.5,1.3-0.8c0.4-0.2,0.9-0.4,1.4-0.5
				s1.1-0.2,1.7-0.2c1,0,1.9,0.2,2.6,0.5s1.4,0.8,1.9,1.4s0.9,1.3,1.2,2.2c0.3,0.8,0.4,1.8,0.4,2.8v11.6h-4.9V23.3
				c0-1-0.2-1.8-0.7-2.4s-1.2-0.8-2.1-0.8c-0.7,0-1.3,0.1-1.9,0.5c-0.6,0.3-1.2,0.7-1.7,1.2v13.1H273.1z"/>
			<path d="M301.9,16.4c1.2,0,2.2,0.2,3.2,0.6s1.8,0.9,2.5,1.6c0.7,0.7,1.3,1.6,1.7,2.6c0.4,1,0.6,2.2,0.6,3.5c0,0.4,0,0.7-0.1,0.9
				c0,0.2-0.1,0.4-0.2,0.6s-0.2,0.2-0.3,0.3c-0.1,0.1-0.3,0.1-0.5,0.1h-10.9c0.2,1.7,0.6,3,1.5,3.7c0.8,0.8,1.9,1.2,3.2,1.2
				c0.7,0,1.2-0.1,1.7-0.2c0.5-0.2,0.9-0.3,1.3-0.5c0.4-0.2,0.7-0.4,1-0.5c0.3-0.2,0.6-0.2,0.9-0.2c0.4,0,0.7,0.1,0.9,0.4l1.4,1.8
				c-0.5,0.6-1.1,1.1-1.7,1.5c-0.6,0.4-1.3,0.7-1.9,0.9s-1.3,0.4-2,0.5c-0.7,0.1-1.3,0.1-2,0.1c-1.3,0-2.5-0.2-3.6-0.6
				c-1.1-0.4-2.1-1-2.9-1.9c-0.8-0.8-1.5-1.8-1.9-3c-0.5-1.2-0.7-2.6-0.7-4.2c0-1.2,0.2-2.4,0.6-3.5c0.4-1.1,1-2,1.8-2.9
				c0.8-0.8,1.7-1.5,2.8-1.9C299.3,16.6,300.6,16.4,301.9,16.4z M302,19.8c-1.2,0-2.1,0.3-2.7,1c-0.7,0.7-1.1,1.6-1.3,2.8h7.6
				c0-0.5-0.1-1-0.2-1.4c-0.1-0.5-0.4-0.9-0.6-1.2s-0.7-0.6-1.1-0.8C303.2,19.9,302.6,19.8,302,19.8z"/>
			<path d="M327.1,20.8c-0.1,0.2-0.3,0.3-0.4,0.4c-0.1,0.1-0.3,0.2-0.6,0.2c-0.2,0-0.5-0.1-0.7-0.2c-0.2-0.1-0.5-0.3-0.8-0.4
				c-0.3-0.2-0.6-0.3-1-0.4c-0.4-0.1-0.9-0.2-1.4-0.2c-0.7,0-1.4,0.1-1.9,0.4c-0.5,0.3-1,0.6-1.3,1.1c-0.4,0.5-0.6,1.1-0.8,1.8
				c-0.2,0.7-0.3,1.5-0.3,2.4c0,1.9,0.4,3.3,1.1,4.3c0.7,1,1.8,1.5,3.1,1.5c0.4,0,0.8,0,1.2-0.1c0.3-0.1,0.6-0.2,0.8-0.3
				s0.5-0.2,0.6-0.4s0.3-0.3,0.5-0.4s0.3-0.2,0.5-0.3c0.2-0.1,0.3-0.1,0.5-0.1c0.4,0,0.7,0.1,0.9,0.4l1.4,1.8
				c-0.5,0.6-1.1,1.1-1.7,1.5c-0.6,0.4-1.2,0.7-1.8,0.9s-1.3,0.4-1.9,0.5c-0.6,0.1-1.3,0.1-1.9,0.1c-1.1,0-2.2-0.2-3.2-0.6
				s-1.9-1-2.6-1.8c-0.8-0.8-1.3-1.8-1.8-2.9c-0.4-1.2-0.7-2.5-0.7-4c0-1.3,0.2-2.6,0.6-3.7c0.4-1.1,1-2.1,1.7-3s1.7-1.5,2.8-2
				c1.1-0.5,2.4-0.7,3.9-0.7c1.4,0,2.6,0.2,3.7,0.7s2,1.1,2.8,1.9L327.1,20.8z"/>
			<path d="M336.8,8.6v14.9h0.8c0.3,0,0.5,0,0.7-0.1c0.2-0.1,0.4-0.2,0.5-0.5l4-5.4c0.2-0.3,0.4-0.5,0.7-0.6c0.3-0.1,0.6-0.2,1-0.2
				h4.4l-5.2,6.6c-0.4,0.6-0.9,1-1.4,1.3c0.3,0.2,0.5,0.4,0.7,0.7s0.4,0.5,0.6,0.8l5.6,8.8h-4.4c-0.4,0-0.7-0.1-1-0.2
				s-0.5-0.3-0.7-0.7l-4.1-6.7c-0.2-0.3-0.3-0.5-0.5-0.5c-0.2-0.1-0.4-0.1-0.8-0.1h-1v8.2h-4.9V8.6H336.8z"/>
		</g>
		<g>
			<path d="M52.5,68.3c0.6,0,1.2-0.1,1.7-0.3s0.9-0.5,1.3-0.9c0.3-0.4,0.6-0.8,0.8-1.4c0.2-0.5,0.3-1.2,0.3-1.8v-11h3.8v11
				c0,1.1-0.2,2.2-0.5,3.1s-0.9,1.8-1.6,2.4c-0.7,0.7-1.5,1.2-2.5,1.6c-1,0.4-2,0.6-3.3,0.6s-2.3-0.2-3.3-0.6
				c-1-0.4-1.8-0.9-2.5-1.6c-0.7-0.7-1.2-1.5-1.6-2.4s-0.5-2-0.5-3.1v-11h3.8v11c0,0.7,0.1,1.3,0.3,1.8s0.4,1,0.8,1.4
				c0.3,0.4,0.8,0.7,1.3,0.9S51.9,68.3,52.5,68.3z"/>
			<path d="M63.7,71.3V58.1h2.2c0.4,0,0.7,0.2,0.9,0.6l0.2,0.9c0.3-0.3,0.5-0.5,0.8-0.7c0.3-0.2,0.6-0.4,0.9-0.5s0.7-0.3,1-0.4
				c0.4-0.1,0.8-0.1,1.2-0.1c0.7,0,1.4,0.1,1.9,0.4c0.6,0.2,1,0.6,1.4,1c0.4,0.4,0.7,1,0.9,1.6c0.2,0.6,0.3,1.3,0.3,2v8.4h-3.5v-8.4
				c0-0.7-0.2-1.3-0.5-1.7s-0.8-0.6-1.5-0.6c-0.5,0-1,0.1-1.4,0.3c-0.4,0.2-0.8,0.5-1.2,0.9v9.5H63.7z"/>
			<path d="M83,54.4c0,0.3-0.1,0.6-0.2,0.8c-0.1,0.3-0.3,0.5-0.5,0.7c-0.2,0.2-0.4,0.3-0.7,0.5s-0.6,0.2-0.9,0.2
				c-0.3,0-0.6-0.1-0.8-0.2c-0.3-0.1-0.5-0.3-0.7-0.5c-0.2-0.2-0.4-0.4-0.5-0.7c-0.1-0.3-0.2-0.5-0.2-0.8c0-0.3,0.1-0.6,0.2-0.8
				c0.1-0.3,0.3-0.5,0.5-0.7c0.2-0.2,0.4-0.3,0.7-0.5c0.3-0.1,0.5-0.2,0.8-0.2c0.3,0,0.6,0.1,0.9,0.2s0.5,0.3,0.7,0.5
				c0.2,0.2,0.4,0.4,0.5,0.7C82.9,53.8,83,54.1,83,54.4z M82.6,58.1v13.2H79V58.1H82.6z"/>
			<path d="M90.8,71.5c-0.6,0-1.1-0.1-1.6-0.3c-0.5-0.2-0.8-0.4-1.2-0.7c-0.3-0.3-0.6-0.7-0.7-1.2c-0.2-0.5-0.2-1-0.2-1.6v-7.1h-1.2
				c-0.2,0-0.3-0.1-0.5-0.2c-0.1-0.1-0.2-0.3-0.2-0.5v-1.4l2.1-0.4l0.7-3.4c0.1-0.4,0.4-0.6,0.8-0.6h1.8v4H94v2.5h-3.4v6.9
				c0,0.4,0.1,0.7,0.3,0.9c0.2,0.2,0.4,0.3,0.7,0.3c0.2,0,0.3,0,0.4-0.1c0.1,0,0.2-0.1,0.3-0.1c0.1,0,0.2-0.1,0.2-0.1
				c0.1,0,0.1-0.1,0.2-0.1c0.1,0,0.2,0,0.3,0.1s0.1,0.1,0.2,0.2l1.1,1.7c-0.5,0.4-1,0.7-1.6,0.9C92.1,71.4,91.5,71.5,90.8,71.5z"/>
			<path d="M102.3,57.9c0.8,0,1.6,0.1,2.3,0.4s1.3,0.7,1.8,1.2s0.9,1.1,1.2,1.9s0.4,1.6,0.4,2.5c0,0.3,0,0.5,0,0.7
				c0,0.2-0.1,0.3-0.1,0.4c-0.1,0.1-0.1,0.2-0.2,0.2c-0.1,0-0.2,0.1-0.4,0.1h-7.9c0.1,1.2,0.5,2.1,1.1,2.7c0.6,0.6,1.4,0.9,2.3,0.9
				c0.5,0,0.9-0.1,1.3-0.2s0.7-0.2,0.9-0.4c0.3-0.1,0.5-0.3,0.7-0.4c0.2-0.1,0.4-0.2,0.6-0.2c0.3,0,0.5,0.1,0.6,0.3l1,1.3
				c-0.4,0.4-0.8,0.8-1.2,1.1c-0.5,0.3-0.9,0.5-1.4,0.7c-0.5,0.2-1,0.3-1.5,0.3c-0.5,0.1-1,0.1-1.4,0.1c-0.9,0-1.8-0.2-2.6-0.5
				c-0.8-0.3-1.5-0.8-2.1-1.3c-0.6-0.6-1.1-1.3-1.4-2.2s-0.5-1.9-0.5-3.1c0-0.9,0.1-1.7,0.4-2.5s0.7-1.5,1.3-2.1s1.2-1.1,2-1.4
				C100.4,58.1,101.3,57.9,102.3,57.9z M102.4,60.4c-0.8,0-1.5,0.2-2,0.7c-0.5,0.5-0.8,1.2-0.9,2h5.5c0-0.4,0-0.7-0.1-1
				c-0.1-0.3-0.3-0.6-0.5-0.9c-0.2-0.3-0.5-0.5-0.8-0.6C103.2,60.5,102.8,60.4,102.4,60.4z"/>
			<path d="M120.5,71.3c-0.5,0-0.7-0.2-0.9-0.6l-0.3-1.2c-0.5,0.6-1.1,1-1.8,1.4s-1.5,0.5-2.4,0.5c-0.7,0-1.4-0.1-1.9-0.4
				c-0.6-0.3-1.1-0.7-1.5-1.3c-0.4-0.6-0.8-1.3-1-2.1s-0.4-1.8-0.4-2.9c0-1,0.1-1.9,0.4-2.7s0.6-1.6,1.1-2.2
				c0.5-0.6,1.1-1.1,1.8-1.4c0.7-0.3,1.5-0.5,2.3-0.5c0.7,0,1.3,0.1,1.8,0.3c0.5,0.2,0.9,0.5,1.3,0.9v-6.8h3.5v19.1H120.5z
				 M116.4,68.8c0.6,0,1.1-0.1,1.6-0.4c0.4-0.2,0.8-0.6,1.2-1.1v-5.8c-0.3-0.4-0.7-0.7-1.1-0.8s-0.8-0.2-1.2-0.2
				c-0.4,0-0.8,0.1-1.2,0.2c-0.3,0.2-0.6,0.4-0.9,0.8c-0.3,0.3-0.4,0.8-0.6,1.3c-0.1,0.5-0.2,1.2-0.2,1.9c0,0.7,0.1,1.4,0.2,1.9
				c0.1,0.5,0.3,0.9,0.5,1.2c0.2,0.3,0.5,0.5,0.8,0.7C115.7,68.7,116,68.8,116.4,68.8z"/>
			<path d="M143.3,64.2c0.1,0.3,0.3,0.6,0.4,1c0.1-0.3,0.3-0.7,0.4-1c0.1-0.3,0.3-0.6,0.5-0.9l5.2-9.9c0.1-0.1,0.2-0.3,0.2-0.3
				s0.2-0.1,0.3-0.2c0.1,0,0.2-0.1,0.3-0.1c0.1,0,0.3,0,0.4,0h2.9v18.5h-3.4V59.9c0-0.2,0-0.5,0-0.8c0-0.3,0-0.6,0.1-0.8l-5.3,10.1
				c-0.3,0.6-0.7,0.8-1.3,0.8h-0.5c-0.3,0-0.6-0.1-0.8-0.2c-0.2-0.1-0.4-0.3-0.5-0.6l-5.3-10.1c0,0.3,0,0.6,0.1,0.9
				c0,0.3,0,0.5,0,0.8v11.4h-3.4V52.8h2.9c0.2,0,0.3,0,0.4,0c0.1,0,0.2,0,0.3,0.1c0.1,0,0.2,0.1,0.3,0.2s0.2,0.2,0.2,0.3l5.2,9.9
				C143.1,63.6,143.2,63.9,143.3,64.2z"/>
			<path d="M163.4,57.9c0.8,0,1.6,0.1,2.3,0.4s1.3,0.7,1.8,1.2s0.9,1.1,1.2,1.9s0.4,1.6,0.4,2.5c0,0.3,0,0.5,0,0.7
				c0,0.2-0.1,0.3-0.1,0.4c-0.1,0.1-0.1,0.2-0.2,0.2c-0.1,0-0.2,0.1-0.4,0.1h-7.9c0.1,1.2,0.5,2.1,1.1,2.7c0.6,0.6,1.4,0.9,2.3,0.9
				c0.5,0,0.9-0.1,1.3-0.2s0.7-0.2,0.9-0.4c0.3-0.1,0.5-0.3,0.7-0.4c0.2-0.1,0.4-0.2,0.6-0.2c0.3,0,0.5,0.1,0.6,0.3l1,1.3
				c-0.4,0.4-0.8,0.8-1.2,1.1c-0.5,0.3-0.9,0.5-1.4,0.7c-0.5,0.2-1,0.3-1.5,0.3c-0.5,0.1-1,0.1-1.4,0.1c-0.9,0-1.8-0.2-2.6-0.5
				c-0.8-0.3-1.5-0.8-2.1-1.3c-0.6-0.6-1.1-1.3-1.4-2.2s-0.5-1.9-0.5-3.1c0-0.9,0.1-1.7,0.4-2.5s0.7-1.5,1.3-2.1s1.2-1.1,2-1.4
				C161.5,58.1,162.4,57.9,163.4,57.9z M163.4,60.4c-0.8,0-1.5,0.2-2,0.7c-0.5,0.5-0.8,1.2-0.9,2h5.5c0-0.4,0-0.7-0.1-1
				c-0.1-0.3-0.3-0.6-0.5-0.9c-0.2-0.3-0.5-0.5-0.8-0.6C164.3,60.5,163.9,60.4,163.4,60.4z"/>
			<path d="M176.4,71.5c-0.6,0-1.1-0.1-1.6-0.3c-0.5-0.2-0.8-0.4-1.2-0.7c-0.3-0.3-0.6-0.7-0.7-1.2c-0.2-0.5-0.2-1-0.2-1.6v-7.1
				h-1.2c-0.2,0-0.3-0.1-0.5-0.2c-0.1-0.1-0.2-0.3-0.2-0.5v-1.4l2.1-0.4l0.7-3.4c0.1-0.4,0.4-0.6,0.8-0.6h1.8v4h3.4v2.5h-3.4v6.9
				c0,0.4,0.1,0.7,0.3,0.9c0.2,0.2,0.4,0.3,0.7,0.3c0.2,0,0.3,0,0.4-0.1c0.1,0,0.2-0.1,0.3-0.1c0.1,0,0.2-0.1,0.2-0.1
				c0.1,0,0.1-0.1,0.2-0.1c0.1,0,0.2,0,0.3,0.1s0.1,0.1,0.2,0.2l1.1,1.7c-0.5,0.4-1,0.7-1.6,0.9C177.7,71.4,177.1,71.5,176.4,71.5z"
				/>
			<path d="M182.2,71.3V52.3h3.5v7.2c0.5-0.5,1-0.8,1.6-1.1s1.3-0.4,2.1-0.4c0.7,0,1.4,0.1,1.9,0.4c0.6,0.2,1,0.6,1.4,1
				c0.4,0.4,0.7,1,0.9,1.6c0.2,0.6,0.3,1.3,0.3,2v8.4h-3.5v-8.4c0-0.7-0.2-1.3-0.5-1.7s-0.8-0.6-1.5-0.6c-0.5,0-1,0.1-1.4,0.3
				c-0.4,0.2-0.8,0.5-1.2,0.9v9.5H182.2z"/>
			<path d="M203.4,57.9c1,0,1.9,0.2,2.7,0.5s1.5,0.8,2.1,1.3c0.6,0.6,1,1.3,1.3,2.1s0.5,1.8,0.5,2.8c0,1-0.2,2-0.5,2.8
				c-0.3,0.8-0.8,1.6-1.3,2.1s-1.3,1-2.1,1.4s-1.7,0.5-2.7,0.5c-1,0-1.9-0.2-2.7-0.5c-0.8-0.3-1.5-0.8-2.1-1.4
				c-0.6-0.6-1-1.3-1.3-2.1c-0.3-0.8-0.5-1.8-0.5-2.8c0-1,0.2-2,0.5-2.8s0.8-1.5,1.3-2.1c0.6-0.6,1.3-1,2.1-1.3
				C201.5,58.1,202.4,57.9,203.4,57.9z M203.4,68.9c1,0,1.8-0.3,2.2-1c0.5-0.7,0.7-1.7,0.7-3.1c0-1.4-0.2-2.4-0.7-3.1
				c-0.5-0.7-1.2-1-2.2-1c-1,0-1.8,0.3-2.3,1c-0.5,0.7-0.7,1.7-0.7,3.1c0,1.4,0.2,2.4,0.7,3.1C201.6,68.5,202.3,68.9,203.4,68.9z"/>
			<path d="M222.4,71.3c-0.5,0-0.7-0.2-0.9-0.6l-0.3-1.2c-0.5,0.6-1.1,1-1.8,1.4s-1.5,0.5-2.4,0.5c-0.7,0-1.4-0.1-1.9-0.4
				c-0.6-0.3-1.1-0.7-1.5-1.3c-0.4-0.6-0.8-1.3-1-2.1s-0.4-1.8-0.4-2.9c0-1,0.1-1.9,0.4-2.7s0.6-1.6,1.1-2.2
				c0.5-0.6,1.1-1.1,1.8-1.4c0.7-0.3,1.5-0.5,2.3-0.5c0.7,0,1.3,0.1,1.8,0.3c0.5,0.2,0.9,0.5,1.3,0.9v-6.8h3.5v19.1H222.4z
				 M218.3,68.8c0.6,0,1.1-0.1,1.6-0.4c0.4-0.2,0.8-0.6,1.2-1.1v-5.8c-0.3-0.4-0.7-0.7-1.1-0.8s-0.8-0.2-1.2-0.2
				c-0.4,0-0.8,0.1-1.2,0.2c-0.3,0.2-0.6,0.4-0.9,0.8c-0.3,0.3-0.4,0.8-0.6,1.3c-0.1,0.5-0.2,1.2-0.2,1.9c0,0.7,0.1,1.4,0.2,1.9
				c0.1,0.5,0.3,0.9,0.5,1.2c0.2,0.3,0.5,0.5,0.8,0.7C217.6,68.7,217.9,68.8,218.3,68.8z"/>
			<path d="M232.2,54.4c0,0.3-0.1,0.6-0.2,0.8c-0.1,0.3-0.3,0.5-0.5,0.7c-0.2,0.2-0.4,0.3-0.7,0.5s-0.6,0.2-0.9,0.2
				c-0.3,0-0.6-0.1-0.8-0.2c-0.3-0.1-0.5-0.3-0.7-0.5c-0.2-0.2-0.4-0.4-0.5-0.7c-0.1-0.3-0.2-0.5-0.2-0.8c0-0.3,0.1-0.6,0.2-0.8
				c0.1-0.3,0.3-0.5,0.5-0.7c0.2-0.2,0.4-0.3,0.7-0.5c0.3-0.1,0.5-0.2,0.8-0.2c0.3,0,0.6,0.1,0.9,0.2s0.5,0.3,0.7,0.5
				c0.2,0.2,0.4,0.4,0.5,0.7C232.2,53.8,232.2,54.1,232.2,54.4z M231.8,58.1v13.2h-3.5V58.1H231.8z"/>
			<path d="M243.7,60.9c-0.1,0.1-0.2,0.2-0.3,0.3s-0.2,0.1-0.4,0.1c-0.2,0-0.3,0-0.5-0.1c-0.2-0.1-0.4-0.2-0.6-0.3
				c-0.2-0.1-0.5-0.2-0.8-0.3c-0.3-0.1-0.6-0.1-1-0.1c-0.6,0-1,0.1-1.3,0.4s-0.5,0.5-0.5,0.9c0,0.3,0.1,0.5,0.3,0.7
				c0.2,0.2,0.4,0.3,0.7,0.5c0.3,0.1,0.6,0.3,1,0.4c0.4,0.1,0.8,0.2,1.2,0.4c0.4,0.1,0.8,0.3,1.2,0.5c0.4,0.2,0.7,0.4,1,0.7
				c0.3,0.3,0.5,0.6,0.7,1c0.2,0.4,0.3,0.8,0.3,1.4c0,0.6-0.1,1.2-0.4,1.8s-0.6,1-1,1.4c-0.5,0.4-1,0.7-1.7,0.9
				c-0.7,0.2-1.4,0.3-2.3,0.3c-0.5,0-0.9,0-1.3-0.1c-0.4-0.1-0.9-0.2-1.3-0.3c-0.4-0.1-0.8-0.3-1.1-0.5c-0.3-0.2-0.7-0.4-0.9-0.6
				l0.8-1.3c0.1-0.2,0.2-0.3,0.4-0.4s0.3-0.1,0.5-0.1c0.2,0,0.4,0.1,0.6,0.2c0.2,0.1,0.4,0.2,0.6,0.3c0.2,0.1,0.5,0.2,0.8,0.3
				c0.3,0.1,0.7,0.2,1.1,0.2c0.3,0,0.6,0,0.9-0.1c0.2-0.1,0.4-0.2,0.6-0.3c0.2-0.1,0.3-0.3,0.3-0.4s0.1-0.3,0.1-0.5
				c0-0.3-0.1-0.5-0.3-0.7c-0.2-0.2-0.4-0.3-0.7-0.5s-0.6-0.3-1-0.4c-0.4-0.1-0.8-0.2-1.2-0.4c-0.4-0.1-0.8-0.3-1.2-0.5
				c-0.4-0.2-0.7-0.4-1-0.7c-0.3-0.3-0.5-0.6-0.7-1.1c-0.2-0.4-0.3-0.9-0.3-1.5c0-0.5,0.1-1.1,0.3-1.6c0.2-0.5,0.5-0.9,1-1.3
				c0.4-0.4,1-0.7,1.6-0.9s1.4-0.3,2.2-0.3c0.9,0,1.8,0.2,2.6,0.5c0.8,0.3,1.4,0.7,1.9,1.2L243.7,60.9z"/>
			<path d="M252,71.5c-0.6,0-1.1-0.1-1.6-0.3c-0.5-0.2-0.8-0.4-1.2-0.7c-0.3-0.3-0.6-0.7-0.7-1.2c-0.2-0.5-0.2-1-0.2-1.6v-7.1h-1.2
				c-0.2,0-0.3-0.1-0.5-0.2c-0.1-0.1-0.2-0.3-0.2-0.5v-1.4l2.1-0.4l0.7-3.4c0.1-0.4,0.4-0.6,0.8-0.6h1.8v4h3.4v2.5h-3.4v6.9
				c0,0.4,0.1,0.7,0.3,0.9c0.2,0.2,0.4,0.3,0.7,0.3c0.2,0,0.3,0,0.4-0.1c0.1,0,0.2-0.1,0.3-0.1c0.1,0,0.2-0.1,0.2-0.1
				c0.1,0,0.1-0.1,0.2-0.1c0.1,0,0.2,0,0.3,0.1s0.1,0.1,0.2,0.2l1.1,1.7c-0.5,0.4-1,0.7-1.6,0.9C253.3,71.4,252.7,71.5,252,71.5z"/>
			<path d="M277.7,66.8c0.2,0,0.4,0.1,0.5,0.2l1.5,1.6c-0.8,1-1.7,1.7-2.8,2.2s-2.4,0.7-4,0.7c-1.4,0-2.6-0.2-3.7-0.7s-2-1.1-2.8-2
				s-1.4-1.8-1.8-3c-0.4-1.2-0.6-2.4-0.6-3.8c0-0.9,0.1-1.8,0.3-2.6c0.2-0.8,0.5-1.6,0.9-2.3c0.4-0.7,0.8-1.3,1.4-1.9s1.2-1,1.8-1.4
				c0.7-0.4,1.4-0.7,2.2-0.9c0.8-0.2,1.7-0.3,2.6-0.3c0.7,0,1.3,0.1,1.9,0.2c0.6,0.1,1.2,0.3,1.7,0.5s1,0.5,1.5,0.8
				c0.4,0.3,0.9,0.6,1.2,1l-1.3,1.8c-0.1,0.1-0.2,0.2-0.3,0.3c-0.1,0.1-0.3,0.1-0.5,0.1c-0.2,0-0.4-0.1-0.6-0.2
				c-0.2-0.1-0.5-0.3-0.8-0.5c-0.3-0.2-0.7-0.3-1.1-0.5s-1-0.2-1.7-0.2c-0.8,0-1.5,0.1-2.1,0.4c-0.6,0.3-1.2,0.7-1.7,1.2
				c-0.5,0.5-0.8,1.2-1.1,2c-0.3,0.8-0.4,1.7-0.4,2.6c0,1,0.1,1.9,0.4,2.7c0.3,0.8,0.7,1.4,1.1,2c0.5,0.5,1,0.9,1.7,1.2
				s1.3,0.4,2.1,0.4c0.4,0,0.8,0,1.2-0.1s0.7-0.1,1-0.2c0.3-0.1,0.6-0.2,0.9-0.4c0.3-0.2,0.5-0.4,0.8-0.6c0.1-0.1,0.2-0.1,0.3-0.2
				C277.5,66.8,277.6,66.8,277.7,66.8z"/>
			<path d="M282.1,71.3V52.3h3.5v7.2c0.5-0.5,1-0.8,1.6-1.1s1.3-0.4,2.1-0.4c0.7,0,1.4,0.1,1.9,0.4c0.6,0.2,1,0.6,1.4,1
				c0.4,0.4,0.7,1,0.9,1.6c0.2,0.6,0.3,1.3,0.3,2v8.4h-3.5v-8.4c0-0.7-0.2-1.3-0.5-1.7s-0.8-0.6-1.5-0.6c-0.5,0-1,0.1-1.4,0.3
				c-0.4,0.2-0.8,0.5-1.2,0.9v9.5H282.1z"/>
			<path d="M300.7,58.1v8.4c0,0.7,0.2,1.3,0.5,1.7c0.3,0.4,0.8,0.6,1.5,0.6c0.5,0,1-0.1,1.4-0.3c0.4-0.2,0.8-0.5,1.2-0.9v-9.5h3.5
				v13.2h-2.2c-0.5,0-0.7-0.2-0.9-0.6l-0.2-0.9c-0.5,0.5-1.1,0.9-1.7,1.3c-0.6,0.3-1.4,0.5-2.2,0.5c-0.7,0-1.4-0.1-1.9-0.4
				c-0.6-0.2-1-0.6-1.4-1s-0.7-1-0.9-1.6s-0.3-1.3-0.3-2v-8.4H300.7z"/>
			<path d="M312.5,71.3V58.1h2.1c0.4,0,0.6,0.1,0.7,0.2c0.1,0.1,0.2,0.3,0.3,0.7l0.2,1.3c0.4-0.7,0.9-1.3,1.5-1.8
				c0.5-0.4,1.2-0.7,1.9-0.7c0.6,0,1.1,0.1,1.5,0.4l-0.2,2.6c0,0.2-0.1,0.3-0.2,0.4c-0.1,0.1-0.2,0.1-0.4,0.1c-0.1,0-0.3,0-0.6-0.1
				c-0.3,0-0.5-0.1-0.7-0.1c-0.6,0-1.2,0.2-1.5,0.5c-0.4,0.4-0.7,0.8-1,1.5v8.1H312.5z"/>
			<path d="M332.1,61.1c-0.1,0.1-0.2,0.2-0.3,0.3s-0.2,0.1-0.4,0.1c-0.2,0-0.3,0-0.5-0.1c-0.2-0.1-0.3-0.2-0.5-0.3
				c-0.2-0.1-0.4-0.2-0.7-0.3c-0.3-0.1-0.6-0.1-1-0.1c-0.5,0-1,0.1-1.4,0.3c-0.4,0.2-0.7,0.5-1,0.8c-0.3,0.4-0.4,0.8-0.6,1.3
				c-0.1,0.5-0.2,1.1-0.2,1.7c0,1.3,0.3,2.4,0.8,3.1s1.3,1.1,2.2,1.1c0.3,0,0.6,0,0.8-0.1s0.4-0.1,0.6-0.2c0.2-0.1,0.3-0.2,0.5-0.3
				s0.2-0.2,0.4-0.3c0.1-0.1,0.2-0.2,0.3-0.2c0.1-0.1,0.2-0.1,0.4-0.1c0.3,0,0.5,0.1,0.6,0.3l1,1.3c-0.4,0.4-0.8,0.8-1.2,1.1
				c-0.4,0.3-0.9,0.5-1.3,0.7s-0.9,0.3-1.4,0.3c-0.5,0.1-0.9,0.1-1.4,0.1c-0.8,0-1.6-0.2-2.3-0.5c-0.7-0.3-1.4-0.7-1.9-1.3
				c-0.5-0.6-1-1.3-1.3-2.1c-0.3-0.8-0.5-1.8-0.5-2.9c0-1,0.1-1.9,0.4-2.7s0.7-1.5,1.2-2.1c0.5-0.6,1.2-1.1,2-1.4
				c0.8-0.3,1.7-0.5,2.8-0.5c1,0,1.9,0.2,2.6,0.5c0.8,0.3,1.4,0.8,2,1.4L332.1,61.1z"/>
			<path d="M335.6,71.3V52.3h3.5v7.2c0.5-0.5,1-0.8,1.6-1.1s1.3-0.4,2.1-0.4c0.7,0,1.4,0.1,1.9,0.4c0.6,0.2,1,0.6,1.4,1
				c0.4,0.4,0.7,1,0.9,1.6c0.2,0.6,0.3,1.3,0.3,2v8.4h-3.5v-8.4c0-0.7-0.2-1.3-0.5-1.7s-0.8-0.6-1.5-0.6c-0.5,0-1,0.1-1.4,0.3
				c-0.4,0.2-0.8,0.5-1.2,0.9v9.5H335.6z"/>
		</g>
	</g>
</g>
<g id="Layer_7">
	<g>
		<rect x="21.8" y="8.2" width="3.8" height="33.7"/>
		<rect x="11.8" y="15.8" width="23.7" height="3.6"/>
	</g>
	<g>
	</g>
	<g>
	</g>
	<g>
	</g>
	<g>
	</g>
	<g>
	</g>
	<g>
	</g>
	<g>
	</g>
	<g>
	</g>
	<g>
	</g>
	<g>
	</g>
	<g>
	</g>
	<g>
	</g>
	<g>
	</g>
	<g>
	</g>
	<g>
	</g>
</g>
</svg>
