<?xml version="1.0" encoding="utf-8"?>
<!-- Generator: Adobe Illustrator 19.2.0, SVG Export Plug-In . SVG Version: 6.00 Build 0)  -->
<svg version="1.1" xmlns="http://www.w3.org/2000/svg" xmlns:xlink="http://www.w3.org/1999/xlink" x="0px" y="0px"
	 viewBox="0 0 431.5 288.1" style="enable-background:new 0 0 431.5 288.1;" xml:space="preserve">
<style type="text/css">
	.st0{fill:#F3EC90;}
	.st1{fill:#82C4B1;}
	.st2{fill:#FFFFFF;}
</style>
<g id="Layer_1">
	<rect class="st0" width="431.8" height="288.5"/>
	<rect x="451.4" class="st1" width="431.6" height="288.5"/>
	<rect x="477.4" y="27" class="st2" width="378" height="234"/>
	<rect x="495.4" y="45" class="st1" width="342" height="198"/>
	<g>
		<g>
			<path class="st2" d="M601.1,175c0-9.1,9.6-15.1,19.1-21.9c1.7-7.4,2.5-10.9,3.1-14.5c-2.9,6.5-7.2,11.9-12.3,11.9
				c-8.7,0-12.4-8.9-12.4-20.4c0-21.2,12.4-51.3,28.6-51.3c2,0,3.9,0.7,4.7,1.7c4.5,2.2,5.7,7.2,5.7,12.7c0,6.7-1.8,14.2-2.1,18.6
				c-0.2,2.6-2.6,3.6-5,3.6c-2.5,0-5-1.1-5-3c0-7.1,6-17.8,6-25.4c0-1.7-0.3-3.3-1-4.6c-11.8,0.2-22.3,30.8-22.3,48.6
				c0,7.4,1.7,12.6,6,12.6c4.7,0,8.2-7.6,11-15.3c0.7-1.5,2.4-2.4,4.1-2.4c2.2,0,4.3,1.4,4.3,4.4c0,1.9-1.5,9.4-2.4,14.1
				c4.4-4.1,8.4-9,11.4-15.2c0.5-1.1,1.2-1.6,1.7-1.6c0.4,0,0.7,0.3,0.7,1c0,0.4-0.2,1-0.4,1.6c-3.8,9.4-9.1,15.7-14.7,20.5
				l-2.5,9.8c-4.1,15.9-11.8,22-17.7,22C605.6,182.5,601.1,179.6,601.1,175z M607.3,179.4c3.2,0,8.1-4.4,11.4-20.1
				c-6.1,4.4-14.1,10.3-14.1,16.9C604.6,177.6,605.4,179.4,607.3,179.4z"/>
			<path class="st2" d="M649.9,140.2c0,2.1,0.5,3.3,1.8,3.3c3.7,0,9.2-12.1,10.3-14.3c0.6-1.1,1.2-1.7,1.7-1.7c0.4,0,0.7,0.4,0.7,1
				c0,0.5-0.1,1-0.4,1.7c-1.4,3.5-7.2,19.9-15.6,19.9c-3.9,0-7.2-2.8-7.2-10.3c0-6,3.8-24.5,7.8-39.2c0.5-1.7,2.1-2.6,4-2.6
				c2.5,0,5.2,1.7,5.2,5.1C658.2,108.4,649.9,132.5,649.9,140.2z M650.1,88.6c0-4.3,3.5-9.9,9-9.9c4.1,0,5.9,2.4,5.9,5.2
				c0,4.2-4.1,9.5-10.4,9.5C651.5,93.4,650.1,91.2,650.1,88.6z"/>
			<path class="st2" d="M668.7,140.7c0,2.9,0.7,4.9,2.6,4.9c3.1,0,6.9-9,10.3-19c-1.3-2.2-1.9-5.2-1.9-8.4c0-9.5,5.1-21.1,10.3-21.1
				c1.8,0,4,1.1,4,5.7c0,5.2-2.8,14.8-6.1,23.4c0.7,0.3,1.7,0.5,2.5,0.5c5.5,0,10.5-7.5,12.8-13.2c0.4-1.1,0.9-1.5,1.3-1.5
				c0.4,0,0.6,0.5,0.6,1.2c0,0.3,0,0.7-0.1,1c-2.1,6.8-8.1,16.5-15.9,16.5c-1.1,0-2-0.1-2.9-0.4c-4.6,10.7-10.8,19.8-17.3,19.8
				c-5.5,0-7.4-6-7.4-14.2c0-11.3,3.6-26.6,6-35.3c0.5-1.7,2.1-2.6,4-2.6c2.5,0,5.2,1.7,5.2,5.1
				C676.7,108.4,668.7,131.3,668.7,140.7z"/>
			<path class="st2" d="M727.9,109.6c0,9.6-7.2,23.1-17.8,23.1c-1.2,0-2.5-0.2-3.8-0.6c0,4.4,0.4,12,6.6,12
				c9.5,0,14.6-10.8,17.2-14.9c0.6-1,1.1-1.4,1.6-1.4c0.4,0,0.7,0.4,0.7,1c0,0.4-0.1,0.9-0.3,1.4c-4.5,11.2-11.5,20-23,20
				c-8.6,0-12.1-7.8-12.1-17.3c0-14.9,8.6-34.2,19.1-34.2c2.2,0,4.5,0.7,5.7,1.7C726,100.9,727.9,104.7,727.9,109.6z M707.3,129.5
				c5.9,0,14.4-15.8,14.4-23.6c0-1.6-0.2-3.3-1.7-3.3c-5.7,0-12.3,14.8-13.5,26.8C706.8,129.5,707,129.5,707.3,129.5z"/>
		</g>
		<g>
			<path class="st2" d="M631.8,204c0.1,0,0.2,0,0.3,0.1l0.7,0.8c-0.5,0.6-1.2,1.1-1.9,1.4c-0.8,0.3-1.7,0.5-2.8,0.5
				c-0.9,0-1.8-0.2-2.5-0.5c-0.8-0.3-1.4-0.8-2-1.4c-0.5-0.6-1-1.3-1.3-2.1c-0.3-0.8-0.4-1.7-0.4-2.7s0.2-1.9,0.5-2.7
				s0.7-1.5,1.3-2.1c0.6-0.6,1.2-1,2-1.4c0.8-0.3,1.6-0.5,2.6-0.5c0.9,0,1.7,0.1,2.5,0.4c0.7,0.3,1.3,0.7,1.9,1.2L632,196
				c0,0.1-0.1,0.1-0.1,0.2s-0.1,0.1-0.2,0.1c-0.1,0-0.2-0.1-0.4-0.2c-0.2-0.1-0.4-0.2-0.6-0.4c-0.3-0.1-0.6-0.3-1-0.4
				c-0.4-0.1-0.9-0.2-1.4-0.2c-0.7,0-1.3,0.1-1.8,0.3c-0.6,0.2-1,0.6-1.4,1c-0.4,0.4-0.7,1-0.9,1.6c-0.2,0.6-0.3,1.4-0.3,2.2
				c0,0.8,0.1,1.5,0.3,2.2c0.2,0.6,0.6,1.2,1,1.6c0.4,0.4,0.9,0.8,1.4,1c0.5,0.2,1.1,0.3,1.8,0.3c0.4,0,0.7,0,1-0.1
				c0.3,0,0.6-0.1,0.9-0.2c0.3-0.1,0.5-0.2,0.7-0.4c0.2-0.1,0.5-0.3,0.7-0.5C631.6,204,631.7,204,631.8,204z"/>
			<path class="st2" d="M636.6,193.3v13.4H635v-13.4H636.6z"/>
			<path class="st2" d="M641.8,194.6c0,0.2,0,0.3-0.1,0.4c-0.1,0.1-0.1,0.3-0.3,0.4c-0.1,0.1-0.2,0.2-0.4,0.2s-0.3,0.1-0.4,0.1
				c-0.2,0-0.3,0-0.4-0.1c-0.1-0.1-0.3-0.1-0.4-0.2c-0.1-0.1-0.2-0.2-0.2-0.4c-0.1-0.1-0.1-0.3-0.1-0.4c0-0.2,0-0.3,0.1-0.4
				s0.1-0.3,0.2-0.4c0.1-0.1,0.2-0.2,0.4-0.2c0.1-0.1,0.3-0.1,0.4-0.1c0.2,0,0.3,0,0.4,0.1s0.3,0.1,0.4,0.2c0.1,0.1,0.2,0.2,0.3,0.4
				S641.8,194.4,641.8,194.6z M641.4,197.5v9.2h-1.6v-9.2H641.4z"/>
			<path class="st2" d="M651,199.1c0,0.1-0.1,0.1-0.1,0.2c0,0-0.1,0.1-0.2,0.1c-0.1,0-0.2,0-0.3-0.1c-0.1-0.1-0.2-0.2-0.4-0.2
				s-0.4-0.2-0.6-0.2c-0.2-0.1-0.5-0.1-0.9-0.1c-0.5,0-0.9,0.1-1.2,0.2c-0.3,0.2-0.6,0.4-0.9,0.7c-0.2,0.3-0.4,0.7-0.5,1.1
				c-0.1,0.4-0.2,0.9-0.2,1.4c0,0.6,0.1,1.1,0.2,1.5c0.1,0.4,0.3,0.8,0.5,1.1c0.2,0.3,0.5,0.5,0.8,0.7s0.7,0.2,1.1,0.2
				c0.4,0,0.7,0,1-0.1c0.3-0.1,0.5-0.2,0.6-0.3c0.2-0.1,0.3-0.2,0.4-0.3s0.2-0.1,0.3-0.1c0.1,0,0.2,0.1,0.3,0.2l0.5,0.6
				c-0.2,0.2-0.4,0.5-0.7,0.6c-0.3,0.2-0.5,0.3-0.8,0.4c-0.3,0.1-0.6,0.2-0.9,0.3c-0.3,0.1-0.6,0.1-1,0.1c-0.6,0-1.1-0.1-1.6-0.3
				c-0.5-0.2-0.9-0.5-1.3-0.9c-0.4-0.4-0.6-0.9-0.9-1.5c-0.2-0.6-0.3-1.3-0.3-2c0-0.7,0.1-1.3,0.3-1.9c0.2-0.6,0.5-1.1,0.8-1.5
				s0.8-0.7,1.4-1c0.5-0.2,1.2-0.4,1.8-0.4c0.6,0,1.2,0.1,1.7,0.3c0.5,0.2,0.9,0.5,1.3,0.9L651,199.1z"/>
			<path class="st2" d="M655.4,193.3v7.9h0.4c0.1,0,0.2,0,0.3,0c0.1,0,0.2-0.1,0.3-0.2l2.9-3.1c0.1-0.1,0.2-0.2,0.3-0.2
				s0.2-0.1,0.4-0.1h1.5l-3.4,3.6c-0.2,0.2-0.3,0.4-0.5,0.5c0.1,0.1,0.2,0.2,0.3,0.2s0.2,0.2,0.2,0.3l3.6,4.5h-1.4
				c-0.1,0-0.3,0-0.4-0.1c-0.1,0-0.2-0.1-0.3-0.2l-3-3.8c-0.1-0.1-0.2-0.2-0.3-0.2c-0.1,0-0.2-0.1-0.4-0.1h-0.5v4.4h-1.6v-13.4
				H655.4z"/>
			<path class="st2" d="M679.5,206.7h-1.8v-5.9h-7v5.9H669v-13h1.8v5.8h7v-5.8h1.8V206.7z"/>
			<path class="st2" d="M686.5,197.3c0.6,0,1.1,0.1,1.5,0.3c0.5,0.2,0.9,0.5,1.2,0.8c0.3,0.3,0.6,0.8,0.8,1.3
				c0.2,0.5,0.3,1.1,0.3,1.7c0,0.3,0,0.4-0.1,0.5s-0.2,0.1-0.3,0.1h-6.1c0,0.6,0.1,1.1,0.2,1.5c0.1,0.4,0.3,0.8,0.6,1.1
				c0.3,0.3,0.6,0.5,0.9,0.6c0.4,0.1,0.7,0.2,1.2,0.2c0.4,0,0.8,0,1-0.1c0.3-0.1,0.5-0.2,0.8-0.3c0.2-0.1,0.4-0.2,0.5-0.3
				s0.3-0.1,0.4-0.1c0.1,0,0.2,0.1,0.3,0.2l0.5,0.6c-0.2,0.2-0.4,0.5-0.7,0.6s-0.6,0.3-0.9,0.4c-0.3,0.1-0.6,0.2-1,0.3
				s-0.7,0.1-1,0.1c-0.6,0-1.2-0.1-1.8-0.3c-0.5-0.2-1-0.5-1.4-0.9s-0.7-0.9-0.9-1.5c-0.2-0.6-0.3-1.3-0.3-2.1
				c0-0.6,0.1-1.2,0.3-1.8c0.2-0.6,0.5-1,0.8-1.4c0.4-0.4,0.8-0.7,1.4-1C685.2,197.4,685.8,197.3,686.5,197.3z M686.5,198.5
				c-0.8,0-1.4,0.2-1.8,0.7s-0.7,1.1-0.8,1.9h5c0-0.4-0.1-0.7-0.2-1c-0.1-0.3-0.3-0.6-0.5-0.8c-0.2-0.2-0.5-0.4-0.7-0.5
				C687.2,198.6,686.9,198.5,686.5,198.5z"/>
			<path class="st2" d="M692.8,206.7v-9.2h0.9c0.2,0,0.3,0,0.4,0.1s0.1,0.2,0.1,0.3l0.1,1.4c0.3-0.6,0.6-1.1,1.1-1.5
				c0.4-0.4,0.9-0.5,1.6-0.5c0.2,0,0.4,0,0.6,0.1c0.2,0,0.3,0.1,0.5,0.2l-0.1,1.2c0,0.2-0.1,0.2-0.3,0.2c-0.1,0-0.2,0-0.4-0.1
				c-0.2,0-0.3-0.1-0.6-0.1c-0.3,0-0.6,0-0.8,0.1c-0.2,0.1-0.4,0.2-0.6,0.4c-0.2,0.2-0.3,0.4-0.5,0.6c-0.1,0.2-0.3,0.5-0.4,0.8v5.8
				H692.8z"/>
			<path class="st2" d="M703.3,197.3c0.6,0,1.1,0.1,1.5,0.3c0.5,0.2,0.9,0.5,1.2,0.8c0.3,0.3,0.6,0.8,0.8,1.3
				c0.2,0.5,0.3,1.1,0.3,1.7c0,0.3,0,0.4-0.1,0.5s-0.2,0.1-0.3,0.1h-6.1c0,0.6,0.1,1.1,0.2,1.5c0.1,0.4,0.3,0.8,0.6,1.1
				c0.3,0.3,0.6,0.5,0.9,0.6c0.4,0.1,0.7,0.2,1.2,0.2c0.4,0,0.8,0,1-0.1c0.3-0.1,0.5-0.2,0.8-0.3c0.2-0.1,0.4-0.2,0.5-0.3
				s0.3-0.1,0.4-0.1c0.1,0,0.2,0.1,0.3,0.2l0.5,0.6c-0.2,0.2-0.4,0.5-0.7,0.6s-0.6,0.3-0.9,0.4c-0.3,0.1-0.6,0.2-1,0.3
				s-0.7,0.1-1,0.1c-0.6,0-1.2-0.1-1.8-0.3c-0.5-0.2-1-0.5-1.4-0.9s-0.7-0.9-0.9-1.5c-0.2-0.6-0.3-1.3-0.3-2.1
				c0-0.6,0.1-1.2,0.3-1.8c0.2-0.6,0.5-1,0.8-1.4c0.4-0.4,0.8-0.7,1.4-1C702,197.4,702.6,197.3,703.3,197.3z M703.3,198.5
				c-0.8,0-1.4,0.2-1.8,0.7s-0.7,1.1-0.8,1.9h5c0-0.4-0.1-0.7-0.2-1c-0.1-0.3-0.3-0.6-0.5-0.8c-0.2-0.2-0.5-0.4-0.7-0.5
				C704,198.6,703.7,198.5,703.3,198.5z"/>
		</g>
	</g>
</g>
<g id="Layer_2">
	<rect x="26.8" y="27" class="st2" width="378" height="234"/>
</g>
<g id="Layer_3">
	<rect x="44.8" y="45" class="st0" width="342" height="198"/>
</g>
<g id="Layer_4">
</g>
<g id="Layer_5">
	<g>
		<g>
			<path class="st2" d="M81.7,98.2c1.3,0,2.5,0.5,2.5,1.5c0,2.4-0.3,4.7-0.3,7c0,13.7,3.1,26.8,4.9,34.4c1.5-13.3,3.3-27.5,6.1-41.2
				c0.4-1.7,2.1-2.5,3.6-2.5c1.3,0,2.4,0.5,2.4,1.3c0,2-4.2,8.6-11,47.2c0,0,0.1,0.5,0.1,1c0,1.5-2,3.1-3.9,3.1
				c-1,0-1.9-0.5-2.3-1.8c-2.4-8.6-5.5-21.5-6.4-35.6c-1.9,12.6-3.2,20.3-7.8,35.8c-0.3,1-1.8,1.5-3.2,1.5c-1.4,0-2.5-0.4-2.5-1.3
				c0-1.2,6.8-9.9,13.3-44.8c0-0.9,0-1.7,0.1-2.5C77.4,99.3,79.7,98.2,81.7,98.2z"/>
			<path class="st2" d="M120.7,120.3c0,7-5.2,18.6-15.3,17.1c-0.2,0-0.4,0-0.6,0c0,4.7,1.2,8.4,4.8,8.4c6.3,0,10.6-7.3,12.3-10.7
				c0.7-10.6,6.7-23,13.9-23c1.6,0,3.3,0.5,4.1,1.2c3.1,0.4,4.4,3.3,4.4,7.2c0,7.4-5.1,17.9-12.6,17.9c-1,0-2.1-0.2-3.2-0.7
				c0.1,4.4,1.4,7.8,4.8,7.8c8.5,0,12.4-11.8,13.7-11.8c0.3,0,0.5,0.3,0.5,0.7c0,0.3-0.1,0.7-0.2,1c-3.3,8.1-8.4,14.5-16.7,14.5
				c-5.7,0-8.3-4.7-8.6-10.8c-3.3,6.4-8,11.1-15,11.1c-6.2,0-8.8-5.7-8.8-12.6c0-11,6.2-25.1,13.9-25.1c1.6,0,3.3,0.5,4.1,1.2
				C119.3,114.2,120.7,116.8,120.7,120.3z M116.2,118.4c0-1.5-0.2-3.1-1.5-3.1c-4.2,0-9.2,11.5-9.9,20.3
				C110.8,134.9,116.2,124.3,116.2,118.4z M140,117.8c0-1.5-0.2-2.8-1.4-2.8c-4.3,0-9.3,11.8-10,20.7C134,136.4,140,124,140,117.8z"
				/>
			<path class="st2" d="M164.7,142.5c0,2,0.4,3.1,1.5,3.1c2.5,0,5.6-6.8,7.6-10.8c0.4-0.8,0.9-1.2,1.3-1.2c0.3,0,0.4,0.3,0.4,0.7
				c0,0.3-0.1,0.7-0.3,1.2c-1.8,4.4-4.7,14.5-11.8,14.5c-2.9,0-4.6-3.1-4.6-7.5c0-0.2,0-0.7,0.1-1.1c-2.5,5.3-5.4,8.6-7.8,8.6
				c-3.9,0-5.6-4.2-5.6-9.9c0-11,6.4-27.5,14.8-27.5c2,0,3.1,1.7,3.8,3.5c1.5-6.8,3.2-13.4,4.3-17.4c0.3-1.1,1.2-1.6,2.3-1.6
				c1.8,0,4,1.5,4,4.1C174.5,105.9,164.7,134.1,164.7,142.5z M163.2,119c-0.1-0.9-0.4-2.3-2-2.3c-4.9,0-9.3,17-9.3,24.6
				c0,2.2,0.4,3.6,1.2,3.6c2.9,0,5.7-7.3,7.9-16C161.7,125.9,162.4,122.4,163.2,119z"/>
			<path class="st2" d="M193.1,114.2c-1.7,0-4.1-2.7-4.1-5.2c0-3.2,7-10.3,16.4-10.3c9.7,0,16.4,6.8,16.4,17.8
				c0,9.9-6,20.6-19.3,20.6c-0.3,0-0.5,0-0.8,0c-1.2,5.2-2.1,9.4-2.5,11.7c-0.1,0.8-0.9,1.2-1.9,1.2c-1.6,0-3.5-0.9-3.5-2.5
				c0-3.4,0.8-7.5,1.5-11.3c-1.5-0.4-2.3-1.2-2.3-1.7c0-0.4,0.4-0.7,1.1-0.7c0.4,0,0.9,0.1,1.6,0.3c1.3-7.8,3.2-16.6,6.3-27.2
				c0.3-1.1,1.2-1.5,2.2-1.5c2,0,4.7,1.7,4.7,3.6c0,0.1,0,0.4-0.1,0.5c-2.1,7.7-4.4,16.9-6.3,24.6c8.4-2.3,14-12.7,14-22.1
				c0-3-0.5-5.9-1.7-8.4c-1.7-0.9-3.6-1.2-5.4-1.2c-5.7,0-11.8,4.2-14.8,10.8C194.3,113.9,193.7,114.2,193.1,114.2z"/>
			<path class="st2" d="M225,147.7c-0.2,1.6-1.5,2.4-2.7,2.4c-1.4,0-2.8-1-2.8-3.2c0-5.1,2.5-19.4,5.7-30.6c0.4-1.2,1.5-1.8,2.8-1.8
				c1.7,0,3.6,1.2,3.6,3.2c0,1.2-0.9,3.1-1.2,4.4c2.6-5.6,5.8-9.7,9.4-9.7c2.7,0,3.7,1.6,3.7,4.7c0,4.1-3.5,10.8-3.5,13.4
				c0,1,0.6,1.6,1.7,1.6c2.4,0,5.4-5.3,6.6-8.1c0.4-1.1,0.9-1.7,1.4-1.7c0.8,0,0.5,1.5,0.4,2c-1.1,4.1-5.3,10.7-10.3,10.7
				c-2.9,0-5.7-1.2-5.7-5.6c0-4,3.2-8.9,3.2-11.1c0-0.5-0.2-0.9-0.7-0.9c-2.5,0-8.4,10.4-10.3,22.7L225,147.7z"/>
			<path class="st2" d="M264.3,143.8c0,1.1,0.4,1.8,1,1.8c1.5,0,3.8-3.9,7.2-10.9c0.4-0.8,0.9-1.2,1.3-1.2c0.2,0,0.4,0.2,0.4,0.7
				c0,0.3-0.1,0.7-0.3,1.2c-1,2.5-5.6,14.5-11.2,14.5c-2.3,0-4.9-1.2-4.9-6.7c0-0.4,0-0.9,0.1-1.4c-2.4,4.9-5.2,8.1-7.5,8.1
				c-3.9,0-5.6-4.2-5.6-9.9c0-11,6.4-27.5,14.8-27.5c2.9,0,4.7,3.1,4.9,5.4h0.4c1.8,0,4,1.5,4,4.2c0,0.4,0,0.7-0.1,1.1
				C266.8,132.5,264.3,140.3,264.3,143.8z M260.3,130l2.3-10.5c0-1.2-0.2-2.8-2-2.8c-4.9,0-9.3,17-9.3,24.6c0,2.2,0.4,3.6,1.2,3.6
				C255.3,145,258.5,138.1,260.3,130z"/>
			<path class="st2" d="M268.7,166.3c0-8,7.7-11,15-15.5c0.3-2.2,0.7-4.6,1.1-7.1c-1.9,3.9-4.4,6.2-7.4,6.2c-4.4,0-5.8-3.1-5.8-7.6
				c0-7.3,3.6-18.5,5.2-27.5c0.2-1.5,1.3-2,2.6-2c1.9,0,4.1,1.4,4.1,3.2c0,2.5-1.2,6.2-2,10.2c-1.5,6.4-3,13.2-3,16.1
				c0,1.7,0.4,2.8,1.5,2.8c3.9,0,5.4-8.4,8.6-20.9c1.2-5.4,2-9.3,2-9.3c0.3-1.2,1.5-1.8,2.7-1.8c1.8,0,3.9,1.2,3.9,2.8
				c0,2-1.2,2.8-5.8,29.4c2.9-2.7,5.6-6,7.8-10.5c0.4-0.8,0.9-1.3,1.3-1.3c0.3,0,0.4,0.2,0.4,0.7c0,0.3-0.1,0.7-0.3,1.3
				c-2.7,6.8-6.3,11.2-10,14.5c-3.3,17.2-8.7,23.5-14.5,23.5C272.6,173.5,268.7,170.3,268.7,166.3z M274.5,171.2
				c6.8,0,8.1-11,8.7-15.8c-5.2,3.3-11.4,6.8-11.4,12.6c0,1.6,0.9,2.5,2,3.2C274,171.2,274.2,171.2,274.5,171.2z"/>
			<path class="st2" d="M321.5,120.5c0,7-5.2,16.8-12.9,16.8c-0.9,0-1.8-0.1-2.8-0.4c0,3.2,0.3,8.7,4.8,8.7
				c6.9,0,10.6-7.8,12.5-10.8c0.4-0.7,0.8-1,1.2-1c0.3,0,0.5,0.3,0.5,0.7c0,0.3-0.1,0.7-0.2,1c-3.3,8.1-8.4,14.5-16.7,14.5
				c-6.2,0-8.8-5.7-8.8-12.6c0-10.8,6.2-24.9,13.9-24.9c1.6,0,3.3,0.5,4.1,1.2C320.1,114.2,321.5,116.9,321.5,120.5z M306.5,134.9
				c4.3,0,10.5-11.5,10.5-17.1c0-1.2-0.1-2.4-1.2-2.4c-4.1,0-8.9,10.8-9.8,19.5C306.1,134.9,306.3,134.9,306.5,134.9z"/>
			<path class="st2" d="M326.9,147.7c-0.3,1.6-1.5,2.4-2.7,2.4c-1.4,0-2.8-1-2.8-3.2c0-4,2.5-19.4,5.7-30.6c0.4-1.2,1.5-1.8,2.8-1.8
				c1.7,0,3.6,1.2,3.6,3.2c0,1.2-0.9,3.1-1.2,4.4c2.6-5.6,5.8-9.7,9.4-9.7c2.7,0,3.7,1.6,3.7,4.7c0,4.1-2.7,8.6-3.1,12.9
				c-0.1,1.6-1.2,2.3-2.5,2.3c-1.7,0-3.6-1.4-3.6-3.7c0-4.4,3-8.1,3-10.4c0-0.5-0.2-0.9-0.7-0.9c-2.5,0-8.4,10.4-10.3,22.7
				L326.9,147.7z"/>
			<path class="st2" d="M357.1,98c6.8,0,10.5,5.5,10.5,11.2c0,11.3-11.7,18-13.3,27.4c-0.2,1.2-1.1,1.7-2,1.7
				c-1.6,0-3.6-1.5-3.6-2.8c0-8.1,12.1-16,12.1-27.5c0-4-1.2-8.5-3.8-8.5c-4.4,1.5-4,6.9-6.5,16.2c-0.4,1.3-1.2,1.9-2.3,1.9
				c-1.9,0-4.1-1.8-4.1-4.3C344,111.4,346.9,98,357.1,98z M345.7,147.1c0-2.3,2-5.1,5-5.1c2.3,0,3.2,1.5,3.2,3.1
				c0,2.3-1.9,5.1-4.8,5.1C347.3,150.2,345.7,149.1,345.7,147.1z"/>
		</g>
		<g>
			<path class="st2" d="M182.9,204c0.1,0,0.2,0,0.3,0.1l0.7,0.8c-0.5,0.6-1.2,1.1-1.9,1.4c-0.8,0.3-1.7,0.5-2.8,0.5
				c-0.9,0-1.8-0.2-2.5-0.5c-0.8-0.3-1.4-0.8-2-1.4c-0.5-0.6-1-1.3-1.3-2.1c-0.3-0.8-0.4-1.7-0.4-2.7s0.2-1.9,0.5-2.7
				c0.3-0.8,0.7-1.5,1.3-2.1c0.6-0.6,1.2-1,2-1.4c0.8-0.3,1.6-0.5,2.6-0.5c0.9,0,1.7,0.1,2.5,0.4s1.3,0.7,1.9,1.2l-0.6,0.8
				c0,0.1-0.1,0.1-0.1,0.2s-0.1,0.1-0.2,0.1c-0.1,0-0.2-0.1-0.4-0.2c-0.2-0.1-0.4-0.2-0.6-0.4c-0.3-0.1-0.6-0.3-1-0.4
				c-0.4-0.1-0.9-0.2-1.4-0.2c-0.7,0-1.3,0.1-1.8,0.3c-0.6,0.2-1,0.6-1.4,1c-0.4,0.4-0.7,1-0.9,1.6s-0.3,1.4-0.3,2.2
				c0,0.8,0.1,1.5,0.3,2.2s0.6,1.2,1,1.6c0.4,0.4,0.9,0.8,1.4,1c0.5,0.2,1.1,0.3,1.8,0.3c0.4,0,0.7,0,1-0.1c0.3,0,0.6-0.1,0.9-0.2
				c0.3-0.1,0.5-0.2,0.7-0.4s0.5-0.3,0.7-0.5C182.7,204,182.8,204,182.9,204z"/>
			<path class="st2" d="M187.7,193.3v13.4h-1.6v-13.4H187.7z"/>
			<path class="st2" d="M192.9,194.6c0,0.2,0,0.3-0.1,0.4c-0.1,0.1-0.1,0.3-0.3,0.4c-0.1,0.1-0.2,0.2-0.4,0.2
				c-0.1,0.1-0.3,0.1-0.4,0.1c-0.2,0-0.3,0-0.4-0.1s-0.3-0.1-0.4-0.2c-0.1-0.1-0.2-0.2-0.2-0.4c-0.1-0.1-0.1-0.3-0.1-0.4
				c0-0.2,0-0.3,0.1-0.4s0.1-0.3,0.2-0.4c0.1-0.1,0.2-0.2,0.4-0.2s0.3-0.1,0.4-0.1c0.2,0,0.3,0,0.4,0.1c0.1,0.1,0.3,0.1,0.4,0.2
				c0.1,0.1,0.2,0.2,0.3,0.4S192.9,194.4,192.9,194.6z M192.5,197.5v9.2h-1.6v-9.2H192.5z"/>
			<path class="st2" d="M202.1,199.1c0,0.1-0.1,0.1-0.1,0.2s-0.1,0.1-0.2,0.1c-0.1,0-0.2,0-0.3-0.1c-0.1-0.1-0.2-0.2-0.4-0.2
				c-0.2-0.1-0.4-0.2-0.6-0.2c-0.2-0.1-0.5-0.1-0.9-0.1c-0.5,0-0.9,0.1-1.2,0.2c-0.3,0.2-0.6,0.4-0.9,0.7s-0.4,0.7-0.5,1.1
				c-0.1,0.4-0.2,0.9-0.2,1.4c0,0.6,0.1,1.1,0.2,1.5c0.1,0.4,0.3,0.8,0.5,1.1c0.2,0.3,0.5,0.5,0.8,0.7s0.7,0.2,1.1,0.2
				c0.4,0,0.7,0,1-0.1s0.5-0.2,0.6-0.3s0.3-0.2,0.4-0.3c0.1-0.1,0.2-0.1,0.3-0.1c0.1,0,0.2,0.1,0.3,0.2l0.5,0.6
				c-0.2,0.2-0.4,0.5-0.7,0.6c-0.3,0.2-0.5,0.3-0.8,0.4c-0.3,0.1-0.6,0.2-0.9,0.3c-0.3,0.1-0.6,0.1-1,0.1c-0.6,0-1.1-0.1-1.6-0.3
				s-0.9-0.5-1.3-0.9c-0.4-0.4-0.6-0.9-0.9-1.5c-0.2-0.6-0.3-1.3-0.3-2c0-0.7,0.1-1.3,0.3-1.9c0.2-0.6,0.5-1.1,0.8-1.5
				c0.4-0.4,0.8-0.7,1.4-1s1.2-0.4,1.8-0.4c0.6,0,1.2,0.1,1.7,0.3c0.5,0.2,0.9,0.5,1.3,0.9L202.1,199.1z"/>
			<path class="st2" d="M206.5,193.3v7.9h0.4c0.1,0,0.2,0,0.3,0c0.1,0,0.2-0.1,0.3-0.2l2.9-3.1c0.1-0.1,0.2-0.2,0.3-0.2
				c0.1-0.1,0.2-0.1,0.4-0.1h1.5l-3.4,3.6c-0.2,0.2-0.3,0.4-0.5,0.5c0.1,0.1,0.2,0.2,0.3,0.2s0.2,0.2,0.2,0.3l3.6,4.5h-1.4
				c-0.1,0-0.3,0-0.4-0.1c-0.1,0-0.2-0.1-0.3-0.2l-3-3.8c-0.1-0.1-0.2-0.2-0.3-0.2c-0.1,0-0.2-0.1-0.4-0.1h-0.5v4.4h-1.6v-13.4
				H206.5z"/>
			<path class="st2" d="M230.6,206.7h-1.8v-5.9h-7v5.9h-1.8v-13h1.8v5.8h7v-5.8h1.8V206.7z"/>
			<path class="st2" d="M237.5,197.3c0.6,0,1.1,0.1,1.5,0.3c0.5,0.2,0.9,0.5,1.2,0.8c0.3,0.3,0.6,0.8,0.8,1.3
				c0.2,0.5,0.3,1.1,0.3,1.7c0,0.3,0,0.4-0.1,0.5s-0.2,0.1-0.3,0.1h-6.1c0,0.6,0.1,1.1,0.2,1.5c0.1,0.4,0.3,0.8,0.6,1.1
				c0.3,0.3,0.6,0.5,0.9,0.6c0.4,0.1,0.7,0.2,1.2,0.2c0.4,0,0.8,0,1-0.1c0.3-0.1,0.5-0.2,0.8-0.3c0.2-0.1,0.4-0.2,0.5-0.3
				s0.3-0.1,0.4-0.1c0.1,0,0.2,0.1,0.3,0.2l0.5,0.6c-0.2,0.2-0.4,0.5-0.7,0.6s-0.6,0.3-0.9,0.4c-0.3,0.1-0.6,0.2-1,0.3
				s-0.7,0.1-1,0.1c-0.6,0-1.2-0.1-1.8-0.3c-0.5-0.2-1-0.5-1.4-0.9s-0.7-0.9-0.9-1.5c-0.2-0.6-0.3-1.3-0.3-2.1
				c0-0.6,0.1-1.2,0.3-1.8c0.2-0.6,0.5-1,0.8-1.4c0.4-0.4,0.8-0.7,1.4-1C236.3,197.4,236.9,197.3,237.5,197.3z M237.6,198.5
				c-0.8,0-1.4,0.2-1.8,0.7s-0.7,1.1-0.8,1.9h5c0-0.4-0.1-0.7-0.2-1c-0.1-0.3-0.3-0.6-0.5-0.8c-0.2-0.2-0.5-0.4-0.7-0.5
				C238.3,198.6,237.9,198.5,237.6,198.5z"/>
			<path class="st2" d="M243.9,206.7v-9.2h0.9c0.2,0,0.3,0,0.4,0.1s0.1,0.2,0.1,0.3l0.1,1.4c0.3-0.6,0.6-1.1,1.1-1.5
				c0.4-0.4,0.9-0.5,1.6-0.5c0.2,0,0.4,0,0.6,0.1c0.2,0,0.3,0.1,0.5,0.2l-0.1,1.2c0,0.2-0.1,0.2-0.3,0.2c-0.1,0-0.2,0-0.4-0.1
				c-0.2,0-0.3-0.1-0.6-0.1c-0.3,0-0.6,0-0.8,0.1c-0.2,0.1-0.4,0.2-0.6,0.4c-0.2,0.2-0.3,0.4-0.5,0.6c-0.1,0.2-0.3,0.5-0.4,0.8v5.8
				H243.9z"/>
			<path class="st2" d="M254.4,197.3c0.6,0,1.1,0.1,1.5,0.3c0.5,0.2,0.9,0.5,1.2,0.8c0.3,0.3,0.6,0.8,0.8,1.3
				c0.2,0.5,0.3,1.1,0.3,1.7c0,0.3,0,0.4-0.1,0.5s-0.2,0.1-0.3,0.1h-6.1c0,0.6,0.1,1.1,0.2,1.5c0.1,0.4,0.3,0.8,0.6,1.1
				c0.3,0.3,0.6,0.5,0.9,0.6c0.4,0.1,0.7,0.2,1.2,0.2c0.4,0,0.8,0,1-0.1c0.3-0.1,0.5-0.2,0.8-0.3c0.2-0.1,0.4-0.2,0.5-0.3
				s0.3-0.1,0.4-0.1c0.1,0,0.2,0.1,0.3,0.2l0.5,0.6c-0.2,0.2-0.4,0.5-0.7,0.6s-0.6,0.3-0.9,0.4c-0.3,0.1-0.6,0.2-1,0.3
				s-0.7,0.1-1,0.1c-0.6,0-1.2-0.1-1.8-0.3c-0.5-0.2-1-0.5-1.4-0.9s-0.7-0.9-0.9-1.5c-0.2-0.6-0.3-1.3-0.3-2.1
				c0-0.6,0.1-1.2,0.3-1.8c0.2-0.6,0.5-1,0.8-1.4c0.4-0.4,0.8-0.7,1.4-1C253.1,197.4,253.7,197.3,254.4,197.3z M254.4,198.5
				c-0.8,0-1.4,0.2-1.8,0.7s-0.7,1.1-0.8,1.9h5c0-0.4-0.1-0.7-0.2-1c-0.1-0.3-0.3-0.6-0.5-0.8c-0.2-0.2-0.5-0.4-0.7-0.5
				C255.1,198.6,254.8,198.5,254.4,198.5z"/>
		</g>
	</g>
	<g>
	</g>
	<g>
	</g>
	<g>
	</g>
	<g>
	</g>
	<g>
	</g>
	<g>
	</g>
	<g>
	</g>
	<g>
	</g>
	<g>
	</g>
	<g>
	</g>
	<g>
	</g>
	<g>
	</g>
	<g>
	</g>
	<g>
	</g>
	<g>
	</g>
</g>
</svg>
